<?xml version="1.0" encoding="UTF-8" standalone="no"?>
<svg
xmlns:dc="http://purl.org/dc/elements/1.1/"
xmlns:cc="http://creativecommons.org/ns#"
xmlns:rdf="http://www.w3.org/1999/02/22-rdf-syntax-ns#"
xmlns:svg="http://www.w3.org/2000/svg"
xmlns="http://www.w3.org/2000/svg"
id="svg8"
version="1.1"
viewBox="0 0 503.55436 184.49385"
height="184.49385mm"
width="503.55435mm">
<defs
id="defs2" />
<metadata
id="metadata5">
<rdf:RDF>
<cc:Work
rdf:about="">
<dc:format>image/svg+xml</dc:format>
<dc:type
rdf:resource="http://purl.org/dc/dcmitype/StillImage" />
<dc:title></dc:title>
</cc:Work>
</rdf:RDF>
</metadata>
<g
transform="translate(168.72159,57.527259)"
id="layer1">
<g
transform="matrix(1.0648602,0,0,1.0648602,-5.3869957,-2.2519217)"
id="g1023">
<path
style="fill:#070707;fill-opacity:1;stroke:none;stroke-width:0.99999994px;stroke-linecap:butt;stroke-linejoin:miter;stroke-opacity:1"
d="m 11.591797,371.43555 c 13.524333,43.95407 19.804194,60.85956 77.765625,62.30859 57.961428,1.44903 86.941728,-11.1084 94.669918,-34.29297 7.7282,-23.18458 -172.435543,-28.01562 -172.435543,-28.01562 z M 815.85547,384.9668 c -34.87559,0.0585 -78.29688,7.72265 -78.29688,7.72265 14.97336,49.75023 28.49857,57.47717 58.44532,56.99414 29.94674,-0.48298 60.85896,-19.80385 62.79101,-49.26757 0.7849,-11.96964 -19.07721,-15.48927 -42.93945,-15.44922 z"
transform="scale(0.26458333)"
id="path2141" />
<path
style="fill:#0f0f0f;fill-opacity:1;stroke:none;stroke-width:0.26458332px;stroke-linecap:butt;stroke-linejoin:miter;stroke-opacity:1"
d="m 86.782255,108.27605 c 8.421907,0.14647 12.88918,0.0732 13.767985,-0.14647 0.87881,-0.2197 10.61893,-45.917697 10.61893,-45.917697 0,0 -20.578746,-0.585872 -22.043426,8.714843 -1.46468,9.300713 -2.343489,37.349324 -2.343489,37.349324 z"
id="path2139" />
<path
style="fill:#0f0f0f;fill-opacity:1;stroke:none;stroke-width:0.26458332px;stroke-linecap:butt;stroke-linejoin:miter;stroke-opacity:1"
d="m 109.05761,121.34786 c 17.60664,-0.62141 18.64232,-0.20714 20.50655,-4.55701 1.86424,-4.34988 2.79635,-10.46042 2.79635,-12.22108 0,-1.76067 -12.32465,-4.971289 -16.15668,2.48564 -3.83203,7.45693 -7.14622,14.29245 -7.14622,14.29245 z"
id="path2135" />
<path
style="fill:#161616;fill-opacity:1;stroke:none;stroke-width:0.26458332px;stroke-linecap:butt;stroke-linejoin:miter;stroke-opacity:1"
d="m 108.95404,121.14072 c 9.32116,0.31071 13.15319,-15.84597 13.25676,-25.995684 0.10357,-10.14971 -3.72846,-26.617099 -13.67104,-26.409962 -9.94257,0.207137 -12.842488,12.117512 -13.049625,24.235023 -0.207137,12.117513 5.592695,27.445643 13.463905,28.170623 z"
id="path2133" />
<path
style="fill:#0f0f0f;fill-opacity:1;stroke:none;stroke-width:0.26458332px;stroke-linecap:butt;stroke-linejoin:miter;stroke-opacity:1"
d="m -66.801666,116.06587 c 22.370791,0.20713 24.131455,-0.20714 27.445644,-0.41428 3.314192,-0.20713 4.557014,-1.76066 5.592699,-3.21062 1.035685,-1.44996 4.557012,-8.90689 4.349875,-10.66755 -0.207137,-1.76066 -25.581412,-11.392532 -30.449131,0.20714 -4.867719,11.59967 -6.939087,14.08531 -6.939087,14.08531 z"
id="path2131" />
<path
style="fill:#0f0f0f;fill-opacity:1;stroke:none;stroke-width:0.26458332px;stroke-linecap:butt;stroke-linejoin:miter;stroke-opacity:1"
d="m -82.751212,97.941385 c 5.592696,1.035685 7.456929,0.72498 8.699751,0.72498 1.242822,0 18.901248,-36.04183 18.901248,-36.04183 0,0 -28.947389,-6.939089 -30.190211,8.181909 -1.242822,15.120998 2.589212,27.134941 2.589212,27.134941 z"
id="path2127" />
<path
style="fill:#1a1a1a;fill-opacity:1;stroke:none;stroke-width:0.26458332px;stroke-linecap:butt;stroke-linejoin:miter;stroke-opacity:1"
d="m -66.387394,67.129762 c 6.369462,-0.155352 7.456931,-0.310705 8.026558,0.466059 0.569627,0.776763 9.716143,13.91498 6.505519,16.297053 -3.210621,2.382075 -14.532077,-16.763112 -14.532077,-16.763112 z"
id="path2129" />
<path
style="fill:#161616;fill-opacity:1;stroke:none;stroke-width:0.26458332px;stroke-linecap:butt;stroke-linejoin:miter;stroke-opacity:1"
d="m -66.283826,67.077978 c 7.353363,0 12.842491,12.428217 13.360334,22.370793 0.517842,9.942573 -2.174936,26.927799 -13.153197,26.720669 -10.978258,-0.20714 -12.324649,-23.717185 -12.117512,-28.377765 0.207137,-4.660582 3.210624,-20.713697 11.910375,-20.713697 z"
id="path2125" />
<path
style="fill:#232323;fill-opacity:1;stroke:none;stroke-width:0.26458332px;stroke-linecap:butt;stroke-linejoin:miter;stroke-opacity:1"
d="m 177.47136,-26.782273 1.43267,76.46849 -328.61751,-8.595989 0.35816,-62.320923 z"
id="path2061" />
<path
style="fill:#efe6de;fill-opacity:1;stroke:none;stroke-width:0.26458332px;stroke-linecap:butt;stroke-linejoin:miter;stroke-opacity:1"
d="m 213.37753,-50.86895 c -30.71275,0.895414 -211.1389911,7.342407 -223.943434,7.790114 -12.804442,0.447709 -80.856026,3.044415 -95.451296,3.671205 -14.59528,0.62679 -29.32486,2.328079 -34.42873,2.999642 -5.10387,0.67156 -8.68553,1.16404 -9.26755,2.417622 -0.58202,1.253583 22.16153,1.16404 22.16153,1.16404 l 311.33599,-9.894343 c 0,0 37.92085,-8.551216 29.59349,-8.14828 z"
id="path2037" />
<path
style="fill:#e9e1db;fill-opacity:1;stroke:none;stroke-width:0.26458332px;stroke-linecap:butt;stroke-linejoin:miter;stroke-opacity:1"
d="m 174.06879,-23.424464 c 1.70128,-0.04477 2.23853,0.179083 2.2833,1.611748 0.0448,1.432665 0.13432,5.372494 0.13432,6.402222 0,1.029727 2.01468,-3.939829 2.01468,-3.939829 l 4.02937,-23.05695 c 0,0 53.45631,-8.909386 47.09886,-8.954156 -6.35745,-0.04477 -22.65401,0.850646 -31.65294,1.746059 -8.99892,0.895416 -23.41512,3.089185 -25.83274,4.342768 -2.41762,1.25358 -3.17872,5.014325 -2.37285,6.312678 0.80587,1.298352 4.298,15.53546 4.298,15.53546 z"
id="path2035" />
<path
style="fill:#ebe4df;fill-opacity:1;stroke:none;stroke-width:0.26458332px;stroke-linecap:butt;stroke-linejoin:miter;stroke-opacity:1"
d="m -153.11606,62.266805 c -0.0448,-5.506804 -0.22385,-19.699141 -0.26863,-26.369988 -0.0448,-6.670844 1.11927,-45.979589 1.29836,-52.292269 0.17908,-6.312679 1.11926,-12.893983 1.61174,-15.535459 0.49248,-2.641476 0.98496,-3.133955 6.98425,-3.402579 5.99928,-0.268626 309.54516,-10.028655 313.03728,-10.252509 3.49212,-0.223853 3.49212,0.223854 2.46239,0.984957 -1.02973,0.761103 -1.43267,2.283309 -1.56698,3.536892 -0.13431,1.253582 0.0448,2.014685 0.58202,2.193768 0.53725,0.179084 1.16404,0.358167 2.01469,1.387894 0.85064,1.029729 2.99964,3.895058 2.73101,8.864615 -0.26862,4.969555 -0.35816,5.23818 -1.34312,5.23818 -0.98495,0 -315.05055,5.701944 -317.83643,5.638628 -2.78587,-0.06331 -3.03914,0.253262 -3.35571,2.532618 -0.31658,2.279356 -0.44321,46.726796 -0.3799,48.626258 0.0633,1.899465 0.12663,1.96278 1.58289,1.96278 1.45625,0 125.744467,-0.189947 141.4466963,0 15.7022297,0.189947 108.3327237,1.329624 120.2360237,1.519571 11.9033,0.189947 17.85496,0.316576 19.94437,0.443209 2.0894,0.126629 2.24769,0.126629 2.24769,-0.379894 0,-0.506524 -0.0317,-0.569839 0.85476,-0.728128 0.88642,-0.158287 1.20299,0.06331 1.20299,0.348236 0,0.284919 0.25327,0.348234 1.4246,0.569839 1.17134,0.221604 33.71547,8.484269 34.41195,8.262664 0.69646,-0.221604 2.42853,25.491477 2.42853,25.491477 L 103.77867,67.236363 -67.603875,62.759285 Z"
id="path2033" />
<path
style="fill:#f51f2a;fill-opacity:1;stroke:none;stroke-width:0.26458332px;stroke-linecap:butt;stroke-linejoin:miter;stroke-opacity:1"
d="m 121.21741,94.738819 c -0.2216,-3.197432 -1.96278,-14.309291 -4.84363,-18.203191 -2.88085,-3.893899 -5.79336,-8.515926 -12.28319,-8.737531 -6.489837,-0.221604 -11.235512,7.816781 -12.979669,13.73945 -0.986292,3.34917 -1.44704,6.287252 -1.618854,10.247001 -0.07979,1.838779 0.597186,4.432967 -2.559964,4.093946 -3.591801,-0.385695 -137.362852,-5.223521 -138.819108,-5.255179 -1.456253,-0.03166 -1.93112,-0.633155 -1.994436,-4.020533 -0.01597,-0.854609 -0.420818,-10.745642 -4.027892,-16.618353 -3.28621,-5.350309 -6.195105,-6.159529 -10.004639,-6.138301 -4.627475,0.02579 -8.424623,4.433226 -10.090652,9.112178 -1.6575,4.654999 -2.585286,8.448835 -2.553045,12.711376 0.01533,2.026283 0.427863,2.291587 -0.901761,2.354902 -24.90521,-0.425275 -71.6874,5.697365 -71.31437,-8.372999 0.0236,-0.888366 -0.2179,-4.981894 -0.19631,-7.832958 0.0249,-3.292459 -0.095,-8.262666 -0.095,-9.212396 0,-0.949732 -0.0317,-1.297966 0.69647,-1.297966 0.72813,0 87.311993,1.108019 93.73851,1.266309 6.426518,0.158287 230.65815,6.173256 233.00083,6.141596 2.34267,-0.03166 3.514,-0.03166 3.57732,-0.506524 0.0633,-0.474864 0.44321,29.156763 0.44321,29.156763 z"
id="path2016" />
<path
style="fill:#e7ded6;fill-opacity:1;stroke:none;stroke-width:0.26458332px;stroke-linecap:butt;stroke-linejoin:miter;stroke-opacity:1"
d="m 314.96243,-13.44058 c 2.50717,0.04477 2.5967,0.358166 2.99963,3.5816622 0.40294,3.223496 0.71634,10.25250815 0.6268,11.7747146 -0.0895,1.5222064 -0.6268,1.8803726 -2.41763,1.7908312 -1.79083,-0.089542 -2.37283,-0.7163326 -2.731,-2.1937682 -0.35817,-1.47743568 -1.2536,-7.3424076 -1.29836,-10.8345284 -0.0448,-3.4921204 0.40293,-4.2084534 2.82056,-4.1189114 z"
id="path1884" />
<path
style="fill:#f2e7de;fill-opacity:1;stroke:none;stroke-width:0.99999994px;stroke-linecap:butt;stroke-linejoin:miter;stroke-opacity:1"
d="m 1102.502,-113.83789 c -1.066,0.0191 -2.1891,0.0613 -3.3848,0.12109 0,0 -7.0611,23.929691 -4.1895,23.929691 2.8716,0 6.4626,-0.238879 16.6328,0.359375 10.1705,0.598257 77.7729,15.434855 83.3965,16.511718 5.6236,1.07686 4.3068,2.154072 3.8282,8.615235 -0.4788,6.46117 -0.1181,46.543492 0.121,54.201172 0.2393,7.6576772 -0.2392,8.2573016 2.2735,8.3769528 2.5127,0.119651 2.9902,0.2395314 2.9902,-6.4609376 0,-6.7004682 0.2403,-55.0410552 0.2403,-60.0664062 0,-5.025351 2.8701,-2.8702 3.1093,-7.65625 0.2393,-4.78605 -0.9571,-7.658688 -5.9824,-10.291016 -5.0254,-2.632327 -67.961,-20.101874 -78.0117,-23.691404 -8.7944,-3.14086 -13.5574,-4.08337 -21.0234,-3.94922 z m 1.6152,5.24609 c 5.0924,0.1227 7.1742,1.47085 6.9648,4.92578 -0.1969,2.76401 0.3585,2.75094 2.8711,2.99024 2.5127,0.23928 3.6877,0.3388 4.0684,-0.83594 0.4796,-1.4797 0.3576,-2.39317 2.9902,-1.79492 2.6323,0.59826 26.8955,5.841627 32.2829,8.107597 5.8074,2.442586 4.2251,3.362892 0.6004,5.390984 -3.4709,1.942064 -6.0948,3.724368 -15.0687,1.929599 -8.9738,-1.794769 -16.3781,-2.864392 -18.4122,-4.539509 -2.0341,-1.675117 -2.5118,-1.916168 -2.5118,-3.710937 0,-1.794769 -0.1216,-2.511719 -3.7109,-2.511719 -3.5896,0 -4.1869,0.718395 -4.3066,2.632813 -0.1198,1.91442 -0.7187,2.512742 -3.9493,2.273437 -3.2305,-0.239282 -4.1875,-14.837895 -4.1875,-14.837895 0.8526,-0.0299 1.6417,-0.0371 2.3692,-0.0195 z m 64.6953,18.550784 c 1.1367,-0.04487 2.3336,0.254329 4.248,0.613282 3.8288,0.717906 14.836,3.709734 19.3829,4.90625 4.5466,1.196511 5.2653,3.708715 4.9062,5.144531 -0.359,1.435812 -1.5556,2.154566 -6.8203,0.71875 -5.2646,-1.435816 -22.4357,-4.602692 -26.1449,-5.44025 -3.7091,-0.837559 -5.5748,-0.598474 0.5394,-4.491391 1.6751,-1.017035 2.752,-1.406302 3.8887,-1.451172 z"
transform="scale(0.26458333)"
id="path1874" />
<path
style="fill:#353535;fill-opacity:1;stroke:none;stroke-width:0.26458332px;stroke-linecap:butt;stroke-linejoin:miter;stroke-opacity:1"
d="m 179.16348,57.557131 c 0.18994,3.862241 14.35924,2.787742 15.75218,2.787742 8.43169,-9.170655 91.53268,9.65634 110.07484,-11.794671 -0.37992,-4.30545 -1.1397,-11.080202 -1.64621,-15.322335 -0.50652,-4.242136 -2.65925,-17.348432 -3.73563,-22.983507 -1.07635,-5.6350739 -5.44513,-25.009599 -6.33153,-28.998472 -0.88641,-3.988873 -1.70953,-5.381813 -1.77284,-7.977745 -0.0633,-2.595932 -2.0261,-19.121265 -2.0261,-19.121265 l -13.86607,-2.785877 -48.81621,-0.506524 -43.75097,5.951651 -2.65925,17.2218 c -0.43846,2.839547 -1.44121,28.4209889 -1.5712,41.542956 -1.20526,19.634324 -0.68791,24.467214 0.34899,41.986247 z"
id="path1867" />
<path
style="fill:#ece5df;fill-opacity:1;stroke:none;stroke-width:0.26458332px;stroke-linecap:butt;stroke-linejoin:miter;stroke-opacity:1"
d="m 176.98255,69.762198 c -0.0633,-4.495395 -1.02894,-20.45221 -1.09225,-22.225043 -0.0633,-1.772833 -0.0531,-2.193703 0.27152,-2.204897 0.32459,-0.01119 0.54844,0.01119 0.59321,-0.805873 0.0448,-0.817068 -0.38987,-48.7812609 -0.35821,-52.8967647 0.0317,-4.1155033 0.79145,-19.4061813 0.94973,-23.9015793 0.15829,-4.495395 1.73656,-10.448711 4.24373,-12.060457 2.50716,-1.611749 9.84957,-3.492122 20.50501,-4.835244 10.65545,-1.343123 20.6841,-2.238539 29.10101,-2.596706 8.4169,-0.358166 16.65473,0 24.26576,0.53725 7.61103,0.537249 21.75859,1.522206 26.41475,1.790829 4.65617,0.268627 8.23783,0.626793 8.95417,5.909744 0.71633,5.282951 1.55974,12.83747 1.78133,15.876611 0.22161,3.039142 0,2.975826 -0.79145,2.880853 -0.79142,-0.09497 -0.75978,-0.474866 -0.94972,-2.121067 -0.18995,-1.646201 -0.85476,-9.592289 -1.39295,-13.264586 -0.53817,-3.672295 -1.13967,-5.350153 -4.33711,-5.730047 -3.19741,-0.379892 -27.98541,-1.646201 -35.74155,-1.519571 -7.75615,0.126632 -22.3187,0.348237 -30.07484,1.044705 -7.75614,0.69647 -26.52917,2.595932 -30.16981,3.039141 -3.64064,0.443209 -4.9386,1.234652 -5.47678,3.482351 -0.53818,2.247696 -1.93112,14.720839 -2.12107,16.968537 -0.18995,2.247698 -0.44321,3.767269 -0.66481,7.534538 -0.22161,3.767269 -0.0633,31.626063 0,35.868197 0.0633,4.242135 0.15829,33.272267 0.18994,35.076757 0.0317,1.80449 0.53819,1.836147 1.55123,1.867804 1.01305,0.03166 8.54759,0.253262 9.59229,0.221605 1.04471,-0.03166 1.6462,0.253262 1.80449,-0.538181 0.15829,-0.791446 1.39294,0.253262 1.39294,0.253262 l 0.53818,12.124906 z"
id="path1865" />
<path
style="fill:#eee8e4;fill-opacity:1;stroke:none;stroke-width:0.26458332px;stroke-linecap:butt;stroke-linejoin:miter;stroke-opacity:1"
d="m 308.52763,64.013931 c -0.16743,-3.97587 -0.62778,-8.035443 -0.83703,-9.583941 -0.20926,-1.548498 -0.54407,-1.548498 -1.0463,-1.841458 -0.5022,-0.292957 -0.58589,-0.920726 -0.87887,-2.008859 -0.29294,-1.088133 -0.75332,-2.971443 -1.21369,-3.934021 -0.46035,-0.96258 -0.71147,-1.29739 -2.76217,-1.171837 -2.05071,0.125556 -19.96305,0.878877 -27.78924,1.171837 -7.82619,0.292957 -24.1482,1.213686 -35.53175,1.590347 -11.38354,0.376664 -39.46575,1.339241 -42.01868,1.422945 -2.55293,0.0837 -2.53346,0.170324 -2.44975,1.96993 0.0837,1.799605 0.0973,2.805985 0.10608,4.391463 0.007,1.345094 -0.37666,1.799606 0.0837,6.82176 0.46036,5.022151 0.50222,9.50024 1.67405,9.583941 1.17184,0.0837 112.66365,-8.412107 112.66365,-8.412107 z"
id="path1125" />
<path
style="fill:#f62530;fill-opacity:1;stroke:none;stroke-width:0.26458332px;stroke-linecap:butt;stroke-linejoin:miter;stroke-opacity:1"
d="m 198.56979,68.598435 c -12.7,0 -18.91771,-0.132291 -20.57135,-0.132291 -1.65365,0 -1.19063,0.06615 -1.19063,2.579687 0,2.513542 0.79375,22.357291 0.79375,24.143229 0,1.785937 24.27552,0.264583 24.27552,0.264583 z"
id="path1033" />
<path
style="fill:#f6303b;fill-opacity:1;stroke:none;stroke-width:0.26458332px;stroke-linecap:butt;stroke-linejoin:miter;stroke-opacity:1"
d="m 310.08222,88.735118 c -0.8032,-0.141742 -0.8032,-0.377978 -0.8032,-1.842635 0,-1.464656 0.0945,-2.504093 -0.2835,-3.307291 -0.37796,-0.803198 -0.99219,-1.370163 -1.22841,-4.346726 -0.23624,-2.976562 -0.23624,-6.425597 -0.23624,-7.890253 0,-1.464657 0,-1.889882 0.56697,-1.889882 0.56695,0 0.75594,-0.283482 0.70872,-1.700892 -0.0473,-1.41741 -0.189,-3.023809 -0.28351,-3.874257 -0.0945,-0.850445 -0.80319,-0.661458 -3.54351,-0.425222 -2.74034,0.236235 -6.00038,0.566965 -17.19791,1.039434 -11.19757,0.472471 -35.76601,1.748141 -45.16816,2.173364 -9.40216,0.425222 -42.52233,1.842632 -44.69569,1.937128 -2.17336,0.09449 -2.45684,0.236233 -2.22061,1.41741 0.23624,1.181177 1.08668,4.724702 1.37016,8.551712 0.28349,3.827007 0.99219,16.914434 1.22843,17.434152 0.23623,0.519716 109.84934,-1.228423 111.78646,-7.276042 z"
id="path1031" />
<path
style="fill:#1b1b1b;fill-opacity:1;stroke:none;stroke-width:0.26458332px;stroke-linecap:butt;stroke-linejoin:miter;stroke-opacity:1"
d="m 178.04302,94.707158 c -0.56984,1.329627 0.12663,1.519571 -3.98887,1.329627 -4.11551,-0.189947 -50.33578,-2.342671 -51.6654,-2.342671 -1.32963,0 -1.17134,0.158287 -1.20299,1.392939 -0.0317,1.234651 0,9.750577 0,10.700307 0,0.94973 0.0316,1.07637 0.8231,1.10802 0.79144,0.0317 56.19245,2.78588 57.49042,2.81754 1.29797,0.0317 -1.45626,-15.005762 -1.45626,-15.005762 z"
id="path2014" />
<path
style="fill:#181818;fill-opacity:1;stroke:none;stroke-width:0.26458332px;stroke-linecap:butt;stroke-linejoin:miter;stroke-opacity:1"
d="m 201.83024,93.741522 c -10.95805,-0.133633 -20.68832,-0.133633 -22.49239,-0.06682 -1.80407,0.06682 -1.73725,0.46772 -1.80407,1.670433 -0.0668,1.202714 0.46772,11.091695 0.60136,12.428035 0.13363,1.33635 0.20045,1.93771 1.73725,1.93771 1.5368,0 16.98365,-4.11779 18.76815,-6.16759 0.4152,-3.09281 7.29744,-9.941816 3.1897,-9.801764 z"
id="path1029" />
<path
style="fill:#161616;fill-opacity:1;stroke:none;stroke-width:0.26458332px;stroke-linecap:butt;stroke-linejoin:miter;stroke-opacity:1"
d="m 310.09947,96.280583 c -6.34765,5.078117 -14.36574,7.216277 -22.38383,7.951267 -8.01809,0.73499 -37.88545,2.20498 -48.50942,2.6727 -10.62396,0.46772 -46.17081,2.07134 -53.4539,2.60587 -7.2831,0.53454 -7.88445,-0.20045 -4.34313,-0.86862 3.54132,-0.66817 12.2944,-3.87541 14.56619,-4.87767 2.27179,-1.00226 3.02704,-1.35522 3.76204,-2.15703 0.73499,-0.80181 110.36205,-5.326517 110.36205,-5.326517 z"
id="path989" />
<path
style="fill:#1b1b1b;fill-opacity:1;stroke:none;stroke-width:0.26458332px;stroke-linecap:butt;stroke-linejoin:miter;stroke-opacity:1"
d="m 306.55815,88.529767 c 4.07586,-0.334086 4.2095,0 4.2095,1.603616 0,1.603619 -0.20045,4.476766 -0.60137,5.746295 -0.4009,1.269532 -1.53678,1.870887 -5.07813,2.472243 -3.54131,0.601358 -18.97612,2.138159 -24.18789,2.472249 -5.21173,0.33408 -38.94961,2.19808 -48.30896,2.3386 -11.33082,0.17012 -22.18358,0.7864 -33.4249,-0.22673 -1.27139,-0.11459 -0.819,-0.14077 -1.05286,-3.047319 -0.13974,-1.736771 -0.13364,-3.541321 -0.0668,-4.476763 0.0668,-0.935445 0.13363,-1.603618 1.26953,-1.603618 1.13589,0 13.16302,-0.334087 27.39512,-1.135896 14.23211,-0.801807 67.6192,-3.474503 79.84678,-4.142677 z"
id="path987" />
<path
style="fill:#1b1b1b;fill-opacity:0.68246448;stroke:none;stroke-width:0.99999994px;stroke-linecap:butt;stroke-linejoin:miter;stroke-opacity:1"
d="m 1068.2617,212.47266 c -7.0711,-0.35356 -219.02582,9.90037 -224.15232,10.2539 -5.12656,0.35356 -6.89563,-0.70668 -6.71876,5.12696 0.17681,5.83362 3.00476,36.06197 3.18165,41.01171 0.17676,4.94976 0.3542,5.48039 -6.00977,6.1875 -6.36325,0.70703 -76.58829,5.99535 -82.85352,6.45313 -6.26522,0.45778 -15.92325,0.88568 -15.95898,2.07617 -0.0624,1 1.87502,1.1875 4.4375,1.3125 2.56252,0.12499 2.8125,1 3,5.1875 0.18746,4.1875 0.31256,31.3125 0.75,38.625 0.43752,7.3125 2.49999,8.8125 7.5,10.25 4.01673,0.82663 8.89022,0.78182 12.23828,0.79492 12.55113,0 68.4115,-3.71088 74.06836,-4.06445 5.65686,-0.35355 4.77357,3.71087 5.12695,13.43359 0.35358,9.72273 1.76744,9.90093 2.82813,4.95118 1.06065,-4.94975 -2.12122,-68.76725 -2.47461,-80.96485 -0.35358,-12.19759 -3.18177,-38.53762 -3.53516,-42.95703 -0.35353,-4.41943 1.41451,-4.77148 6.54102,-4.77148 5.12655,0 62.04798,-3.00567 115.61133,-4.77344 53.5633,-1.76776 84.4996,-3.71378 97.4043,-4.59766 12.9047,-0.88388 13.2588,-0.70633 13.7891,1.94531 0.5304,2.65165 1.7664,15.20322 2.6503,23.51172 0.8839,8.30851 1.2381,16.44065 1.5918,23.51172 0.3535,7.07106 0.8838,62.22385 1.4141,69.29492 0.5303,7.07107 0.53,8.66211 2.4746,8.66211 1.9445,0 0,-6.8938 -0.5293,-13.61132 -0.5302,-6.7175 -4e-4,-6.71674 3.1817,-7.07032 3.1819,-0.35355 51.6175,-2.12107 65.7597,-2.47461 11.9049,-0.29762 13.4247,-2.6393 16.1348,-8.10546 -0.404,-0.93909 -0.8024,-2.03196 -1.168,-3.44532 -0.1016,0.25181 -0.2046,0.50264 -0.2929,0.76758 -1.9446,5.83363 -4.5977,7.95411 -13.6133,7.77734 -9.0156,-0.17678 -59.7505,3.35938 -63.8164,3.35938 -4.0658,0 -5.8318,1.05989 -6.1856,-1.94531 -0.3535,-3.0052 -1.7676,-41.71926 -1.7676,-46.13867 0,-4.41941 0.1761,-4.5967 6.0098,-4.41993 5.8336,0.17677 17.8533,-0.70688 47.0215,-2.12109 25.8081,-1.25131 27.2717,-1.38314 30.4473,1.53906 0.04,-2.13562 0.1809,-3.45622 0.7343,-4.04687 -0.9736,-0.29783 -2.2359,-0.53937 -3.957,-0.67383 -11.3137,-0.88388 -68.5904,2.82911 -73.3633,2.65234 -4.773,-0.17678 -5.832,-1.23783 -5.832,-5.48047 0,-4.24264 -3.3592,-36.06193 -4.4199,-41.36523 -1.0606,-5.30331 -0.1771,-5.30467 -7.2481,-5.6582 z m -232.68553,66.11132 c 4.28512,0.14743 4.86462,1.4627 5.17383,5.48438 0.35357,4.59619 2.29883,42.9568 2.29883,45.07812 0,2.12132 -1.23885,3.00489 -4.95117,3.18164 -3.71229,0.17677 -17.67754,1.59073 -38.1836,2.47461 -20.50613,0.88388 -32.88085,2.12213 -42.25,1.5918 -5.48211,-0.57999 -9.54249,-2.2973 -10.28906,-6.125 -1.00003,-5.9375 -1.31249,-35.25 -0.8125,-39.9375 0.49999,-4.6875 1.0019,-5.40346 6.875,-5.75 20.14395,-1.1886 53.31139,-4.72702 80.06445,-5.99414 0.7734,-0.0221 1.46206,-0.0249 2.07422,-0.004 z"
transform="scale(0.26458333)"
id="path1035" />
<path
style="fill:#f93c46;fill-opacity:1;stroke:none;stroke-width:0.99999994px;stroke-linecap:butt;stroke-linejoin:miter;stroke-opacity:1"
d="m 1147.2305,273.68359 c -12.3621,-0.0944 -51.9472,2.28741 -55.8028,2.58399 -4.1125,0.31636 -6.9589,0.79009 -6.9589,7.27539 0,6.4853 0.7911,18.19 1.2656,21.66992 0.4745,3.47991 1.1063,5.0625 6.4844,5.0625 5.3781,0 54.2567,-2.05672 60.1093,-2.53125 5.8526,-0.47454 6.3262,-1.10617 6.3262,-5.53516 0,-4.42897 -0.7911,-17.40121 -1.4238,-22.62109 -0.6327,-5.21987 -0.7902,-5.85156 -7.9082,-5.85156 -0.5635,-0.0297 -1.2677,-0.0464 -2.0918,-0.0527 z m -317.55667,14.5 c -1.68018,0.0477 -3.83943,0.31474 -6.60156,0.48047 -11.66729,0.53033 -57.982,3.00584 -61.8711,3.35938 -3.88909,0.35355 -7.60143,0.17609 -7.24805,6.36328 0.35358,6.18718 0.88376,19.44479 1.41407,24.39453 0.53034,4.94975 0.35297,5.65818 5.65625,6.01172 5.30332,0.35356 60.10464,-3.36026 67.52929,-4.24414 7.42477,-0.88388 7.95423,-0.70536 7.77735,-7.2461 -0.12892,-4.77122 -0.71226,-14.60121 -1.23633,-22.80468 -0.34876,-5.45926 -1.72354,-6.41945 -5.41992,-6.31446 z"
transform="scale(0.26458333)"
id="path1040" />
<path
style="fill:#eeeeee;fill-opacity:1;stroke:none;stroke-width:1.02094698px;stroke-linecap:butt;stroke-linejoin:miter;stroke-opacity:1"
d="m 1147.3457,279.73828 c -4.9214,0 -17.7858,0.67227 -20.582,1.00781 -2.7963,0.33555 -2.6828,0.78165 -2.459,4.47266 0,4.25026 0.7816,13.98229 1.1172,16.10742 0.3356,2.12513 0.6724,2.90719 3.916,3.13086 3.2436,0.2237 12.1901,0.22382 18.3418,-0.44726 6.1517,-0.67109 6.0405,-1.78881 6.1523,-4.36133 0.1118,-2.57252 -3e-4,-13.53321 -0.3359,-16.88867 -0.3356,-3.35547 -1.2291,-3.02149 -6.1504,-3.02149 z m -32.4512,1.49024 c -1.0485,0.007 -2.3619,0.0762 -4.0117,0.0762 -6.711,0.22369 -17.0016,0.78269 -19.5742,0.89453 -2.5724,0.11185 -2.5717,1.78985 -2.6836,4.13867 -0.1118,2.34883 -0.1134,8.50052 0.334,13.42188 0.4474,4.92133 0.4473,6.15129 3.8027,6.375 3.3555,0.22369 14.3169,-0.66979 19.6856,-1.11719 5.3687,-0.4474 6.3758,-0.55977 6.5996,-3.24414 0.2237,-2.68437 0.3356,-9.06069 0,-15.32422 -0.2517,-4.69765 -1.0066,-5.24168 -4.1524,-5.2207 z m -290.93161,13.7207 c -7.20427,0.25 -15.9804,0.62499 -20.04101,1 -4.06058,0.375 -4.84737,0.86719 -4.97852,3.86719 -0.13104,3 0.39229,12.38281 0.52344,15.63281 0.13096,3.25 0.16246,4.37499 5.95508,4.75 3.66765,0.125 13.52692,0.0463 20.36132,-0.625 5.30873,-0.52145 5.25165,-0.25 5.64453,-3 0.39308,-2.75 0.39279,-7.25 0.13086,-14.375 -0.26196,-7.12501 -0.52243,-6.99999 -7.5957,-7.25 z m -39.20117,1.94531 c -7.16606,0.25 -15.89652,0.625 -19.93555,1 -4.03907,0.375 -4.82078,0.86524 -4.95117,3.86524 -0.13036,3 0.39109,12.38476 0.52148,15.63476 0.13028,3.25 0.78154,5.25001 4.42969,5.375 3.64819,0.12499 12.67924,0.0826 19.5,-0.35937 6.683,-0.43306 7.47053,-1.14063 7.86133,-3.89063 0.3908,-2.75 0.39127,-7.25 0.13086,-14.375 -0.26056,-7.12501 -0.5209,-6.99998 -7.55664,-7.25 z"
transform="scale(0.26458333)"
id="path1042" />
<path
style="fill:#0b0b0b;fill-opacity:1;stroke:none;stroke-width:0.99999994px;stroke-linecap:butt;stroke-linejoin:miter;stroke-opacity:1"
d="m 1058.125,267.76953 c -4.125,-0.12499 -195.375,8.875 -202.25,9.625 -4.62501,0.12499 -4.74999,0.375 -4.625,3.75 0.1251,3.375 0.24984,4.375 3.125,4.25 2.87501,-0.12499 200.75,-9.75 204.375,-10.125 3.625,-0.375 4.125,-1.25 4,-4 -0.1251,-2.75 -0.5,-3.375 -4.625,-3.5 z m 1.7637,10.61719 c -0.6257,-0.0193 -1.4374,10e-4 -2.4981,0.0234 -10.7833,0.17678 -43.3114,2.5649 -44.5488,2.83007 -1.2375,0.26518 -1.3244,0.70631 -1.2363,2.91602 0.088,2.2097 0.087,2.91746 3.7109,3.00586 3.6239,0.0884 39.5987,-2.20944 43.2227,-2.47461 3.6238,-0.26517 3.888,-1.32736 3.623,-3.89062 -0.1989,-1.92245 -0.3966,-2.35216 -2.2734,-2.41016 z m -55.4434,3.11719 c -3.3588,0 -95.90213,3.97752 -98.02342,4.15429 -2.12145,0.17678 -1.94336,0.61835 -1.94336,3.53516 0,2.56327 0.70595,3.09377 6.45117,2.74023 5.74526,-0.35354 89.36141,-3.71139 93.16211,-3.97656 3.8007,-0.26517 4.9503,-0.97285 4.7734,-3.71289 -0.1768,-2.74003 -1.0612,-2.74023 -4.4199,-2.74023 z m -110.0703,4.51562 c -5.125,0 -35.25,1.37499 -38.25,1.625 -3,0.25 -3.75,0.375 -3.75,4.5 0.12499,2.75001 1.375,2.75001 4.375,2.875 3,0.125 34.62503,-1.87498 38.875,-2.125 4.24981,-0.25 4.6251,-1.375 4.5,-3.875 -0.12499,-2.5 -0.625,-3 -5.75,-3 z m 164.4297,2.55664 c -3.2704,0 -41.5436,2.03171 -44.5488,2.29688 -3.0053,0.26517 -2.5627,0.79607 -2.4747,3.71289 0.2653,2.29811 0.707,2.82911 5.9219,2.65234 5.2149,-0.17678 33.7641,-1.68061 39.5977,-2.21094 5.8335,-0.53033 5.5685,-0.79511 5.4804,-3.53515 -0.088,-2.74005 -0.7061,-2.91602 -3.9765,-2.91602 z m -52.8477,3.08789 c -0.2914,-0.008 -0.6178,-0.005 -0.9824,0.006 -2.9168,0.0884 -95.01581,3.62401 -97.75585,3.80078 -2.74008,0.17678 -2.65234,0.52953 -2.65234,2.91602 0,1.85616 0.17729,3.09324 4.41992,3.18164 4.24263,0.0884 91.48107,-3.53561 95.19337,-3.80078 3.7123,-0.26516 4.3302,-0.79465 4.2422,-3.26953 -0.077,-2.16553 -0.425,-2.77478 -2.4649,-2.83399 z m -108.46091,4.07032 c -2.82841,-0.0884 -37.83066,1.5908 -41.18945,1.76757 -3.35864,0.17677 -3.53516,0.53188 -3.53516,3.89063 0.0884,3.09361 9e-5,3.62403 3.80079,3.44726 3.80073,-0.17678 35.26565,-1.68014 39.41992,-1.94531 4.15423,-0.26517 5.57001,-0.70719 5.30469,-3.80078 -0.26518,-3.09359 -0.97234,-3.27097 -3.80079,-3.35937 z m 163.03321,2.53124 c -0.7251,-0.0166 -1.6361,0.0111 -2.7852,0.0332 -10.4299,0 -41.6312,2.20898 -43.3105,2.20898 -1.6794,0 -2.2976,0.97293 -2.1211,3.00586 0.1768,2.03294 0.3521,3.44583 4.418,3.35742 4.0658,-0.0884 38.0084,-1.59076 42.0742,-2.12109 4.0659,-0.53033 4.861,-0.88396 4.5957,-3.80078 -0.1989,-2.18762 -0.6959,-2.63388 -2.8711,-2.6836 z m -54.8027,2.7461 c -0.3809,-0.005 -0.8062,0.005 -1.2813,0.0273 -3.8007,0.17678 -91.48299,4.06542 -95.54882,4.24219 -4.06571,0.17678 -4.33007,0.52994 -4.33007,3.53516 0.35353,2.82842 0.4424,2.91652 4.77343,2.82812 4.331,-0.0884 84.94157,-3.53462 92.18946,-3.97656 7.2477,-0.44195 7.5119,-1.06173 7.4238,-3.625 -0.077,-2.24285 -0.5607,-2.9962 -3.2265,-3.03125 z m -107.48637,4.6289 c -0.88802,0.01 -2.02596,0.0815 -3.48437,0.16993 -7.95496,0.26517 -37.56571,2.03417 -39.42188,2.21093 -1.85616,0.17678 -2.38726,1.32496 -2.29882,3.62305 0.0884,2.2981 0.3551,3.09324 3.89062,3.18164 3.53552,0.0884 33.40963,-1.94282 38.35938,-2.38476 4.94974,-0.44194 6.18805,-0.88493 6.09961,-3.97852 -0.0663,-2.32019 -0.48046,-2.85126 -3.14454,-2.82227 z m 161.45897,2.55469 c -0.5673,0.0155 -1.2148,0.0476 -1.9551,0.0918 -6.9826,0.0884 -41.2772,2.208 -42.6914,2.38477 -1.4141,0.17677 -1.7677,0.88404 -1.6797,3.09374 0.088,2.20972 0.2638,2.91797 4.0645,2.91797 3.8007,0 35.7977,-2.03314 41.543,-2.38671 5.7452,-0.35355 5.2145,-1.94414 4.9492,-3.88868 -0.232,-1.70149 -0.2596,-2.32164 -4.2305,-2.21289 z m -52.6523,2.93946 c -0.4288,0.002 -0.9118,0.0242 -1.4531,0.0684 -4.331,0.35354 -88.91768,3.53508 -96.60747,4.24219 -3.53552,0.26517 -3.80177,0.4426 -3.625,3.00586 0.17688,2.56327 0.0896,3.26953 2.21094,3.26953 2.12129,0 2.9155,-0.35389 3.0039,-1.32617 0.0884,-0.97227 1.15015,-1.58935 3.27149,-1.67773 2.12129,-0.0884 89.35944,-3.36034 92.80664,-3.53711 3.4471,-0.17677 3.6245,-0.26498 3.7129,-1.76758 0.077,-1.31478 -0.3186,-2.29064 -3.3203,-2.27734 z m -109.72854,4.66406 c -3.71233,-0.0884 -35.4439,1.32714 -39.50977,1.5039 -4.06601,0.17678 -4.33148,1.23748 -4.41992,4.1543 0.17677,2.2981 0.17842,2.73874 3.1836,3.00391 3.00521,0.26517 35.44285,-1.58982 40.03906,-1.94336 4.59639,-0.35355 4.59638,-1.50368 4.86133,-3.625 0.26517,-2.12132 -0.44201,-3.00535 -4.1543,-3.09375 z m 162.98824,1.76758 c -2.74,0.0884 -34.9133,1.94574 -41.9843,2.56445 -4.1543,0.26517 -4.1539,0.17643 -3.8887,3.18164 0.2649,3.00521 0.884,3.53615 3.0937,3.35938 2.2097,-0.17677 38.4484,-2.03366 42.0723,-2.29883 3.6239,-0.26517 4.4185,-1.4138 4.3301,-3.88867 -0.088,-2.47488 -0.8829,-3.00636 -3.6231,-2.91797 z m -156.16793,8.52929 c -0.80516,-0.0111 -1.84739,0.0228 -3.19531,0.0449 -6.98268,0.0884 -41.27898,1.32519 -44.10742,1.50196 -2.82841,0.17678 -3.26898,0.61883 -3.35742,3.44726 -0.0884,2.82843 0.7072,3.53567 3.80078,3.44727 3.09362,-0.0884 38.00578,-1.58982 43.2207,-1.94336 5.21492,-0.35355 6.01062,-0.6193 6.1875,-3.71289 0.1326,-2.32018 -0.13334,-2.75201 -2.54883,-2.78516 z"
transform="scale(0.26458333)"
id="path1050" />
<path
style="fill:#eaeaea;fill-opacity:1;stroke:none;stroke-width:0.26458332px;stroke-linecap:butt;stroke-linejoin:miter;stroke-opacity:1"
d="m 265.63005,83.64218 c 1.67407,-0.04185 1.84147,-0.167404 1.92516,1.004433 0.0837,1.171834 0.25112,4.64549 0.25112,5.356963 0,0.711472 -0.46038,0.627769 -2.13442,0.711472 -1.67405,0.0837 -20.21417,1.129983 -21.59526,1.088134 -1.38109,-0.04185 -1.12998,-0.251108 -1.25553,-1.29739 -0.12556,-1.046284 -0.16741,-3.264402 -0.16741,-4.22698 0,-0.962581 0.0458,-1.164982 0.87888,-1.255538 0.96257,-0.104627 18.1216,-1.255538 22.09746,-1.381094 z"
id="path1081" />
<path
style="fill:#0b0b0b;fill-opacity:1;stroke:none;stroke-width:0.26458332px;stroke-linecap:butt;stroke-linejoin:miter;stroke-opacity:1"
d="m 259.85442,85.271996 c -0.85298,0.02668 -1.14607,0.454171 -1.16117,1.312822 0,0.899803 0.21985,1.085332 0.83716,1.118814 0.6173,0.03348 0.8368,0.0094 1.0356,-0.08742 0.19878,-0.09686 0.15713,0.416657 0.11523,0.908977 -0.0419,0.492303 -0.35587,0.517053 -0.87901,0.513696 -0.52314,-0.0034 -0.59637,-0.190645 -0.68006,-0.419693 -0.0837,-0.229044 -0.18826,-0.196144 -0.30335,-0.173655 -0.1151,0.02249 -0.14647,0.137821 -0.0419,0.481675 0.10463,0.343855 0.43936,0.559124 1.19269,0.569841 0.75332,0.01071 1.05696,-0.265178 1.13016,-0.799774 0.0732,-0.534596 0.0523,-1.706393 0,-2.354376 -0.0523,-0.647986 -0.10496,-1.034058 -1.2454,-1.070903 z m 4.01733,0.01116 c -0.0914,-0.01027 -0.15486,0.05501 -0.23927,0.225971 -0.11254,0.227948 -0.24251,0.665011 -0.32401,0.90408 -0.0815,0.239058 -0.24676,0.172777 -0.36535,-0.02863 -0.1186,-0.201415 -0.29513,-0.550615 -0.41083,-0.835723 -0.1157,-0.285104 -0.27253,-0.278043 -0.46509,-0.156473 -0.19257,0.121568 -0.17365,0.174672 0.19224,0.789593 0.19717,0.349638 0.36989,0.499876 0.51987,0.70195 0.14982,0.202073 0.15382,0.390508 0.14882,0.536967 -0.005,0.14646 -0.0512,0.270849 -0.19688,0.550442 -0.14572,0.279592 -0.49223,0.911152 -0.57413,1.160685 -0.0819,0.249554 0.0729,0.329412 0.28474,0.246768 0.17868,-0.06971 0.31014,-0.506686 0.48111,-0.911377 0.17097,-0.404688 0.42054,-0.347194 0.49764,-0.157126 0.0771,0.190071 0.23282,0.51803 0.37052,0.77219 0.13769,0.254157 0.26318,0.257001 0.39119,0.186415 0.12803,-0.07058 0.15269,-0.16462 0.015,-0.418782 -0.1377,-0.254162 -0.40457,-0.720161 -0.56173,-1.016609 -0.15713,-0.296449 -0.13017,-0.463529 -0.0455,-0.796751 0.0848,-0.333225 0.44965,-0.890694 0.56689,-1.254641 0.11725,-0.363939 -0.0286,-0.388136 -0.18293,-0.464673 -0.0386,-0.01914 -0.0719,-0.03085 -0.10232,-0.03427 z m -6.78977,0.151492 c -0.86841,0.01178 -1.23449,0.613446 -1.24489,1.262282 -0.0104,0.648839 0.0941,0.657888 0.26149,0.843949 0.16744,0.18606 0.094,0.291603 0.0103,0.345059 -0.0837,0.05345 -0.13619,0.190177 -0.1571,0.807765 -0.0209,0.617591 0.0838,0.940297 1.22422,0.935279 1.14039,-0.005 1.11976,-0.464718 1.13016,-0.977537 0.0105,-0.51282 -0.021,-0.815961 -0.16743,-0.918604 -0.1465,-0.10264 -0.19868,-0.216947 -0.094,-0.302067 0.10464,-0.08512 0.14618,-0.263832 0.15658,-0.95452 0.0105,-0.690688 -0.31367,-1.021139 -1.11931,-1.041606 z m -2.80396,0.195116 c -0.61731,-0.0021 -1.02567,0.348854 -1.07798,0.851777 -0.0523,0.502922 -0.13566,1.9895 -0.0729,2.354848 0.0628,0.365348 0.1985,0.761105 0.57516,0.839693 0.37666,0.07859 1.02556,0.09097 1.33945,-0.03883 0.31388,-0.129811 0.52295,-0.802484 0.43925,-1.387266 -0.0837,-0.584782 -0.40807,-0.72673 -0.93121,-0.761486 -0.52313,-0.03476 -0.57738,-0.01011 -0.73432,0.06525 -0.15698,0.07537 -0.19918,-0.11961 -0.17828,-0.726737 0.0209,-0.607127 0.0409,-0.718743 0.75241,-0.738841 0.71145,-0.0201 0.68345,0.346807 0.70435,0.472076 0.0209,0.125269 0.16745,0.165793 0.293,0.15364 0.1255,-0.01215 0.11775,-0.205241 0.0915,-0.511286 -0.0399,-0.464054 -0.69755,-0.578512 -1.20044,-0.572836 z m -3.41582,0.208064 c -0.28573,0.0074 -0.65322,0.01743 -0.99425,0.03518 -0.0732,0.0062 -0.0305,0.274963 -0.0305,0.390054 0,0.115091 0.0157,0.224612 0.0837,0.21849 0.0681,-0.0062 0.0939,0.04074 0.10956,0.197468 0.0157,0.15673 0.0754,2.475147 0.0754,2.664964 0,0.04184 -0.11399,0.03255 -0.20309,0.03376 -0.0628,8.52e-4 -0.0525,0.423064 -0.0377,0.556034 0.0148,0.132959 0.57341,0.0479 1.44642,0.06565 0.87298,0.01776 0.8729,-0.35214 0.9617,-0.738059 0.0888,-0.385916 0.0297,-0.962256 -0.0739,-1.094021 -0.1036,-0.131766 -0.13291,-0.264813 -0.0589,-0.384191 0.074,-0.119376 0.1035,-0.519064 0.0739,-0.992155 -0.0296,-0.473092 -0.23725,-0.963801 -1.35238,-0.953181 z m 8.96122,0.0098 c 0.63822,-0.0087 0.78457,0.07291 0.81596,0.679332 0.0314,0.606418 -0.13587,0.734614 -0.73225,0.742701 -0.59638,0.0081 -0.73277,-0.126449 -0.73277,-0.680979 0.0628,-0.597228 0.0108,-0.732401 0.64906,-0.741054 z m -10.75025,0.146797 c -0.031,-7.06e-4 -0.0656,0.0018 -0.10439,0.0061 -0.22194,0.0474 -0.25185,0.106906 -0.26665,0.521413 -0.0148,0.414506 0.0445,2.100596 0.0889,2.869421 0.0444,0.768822 0.19264,0.751667 0.38499,0.734269 0.19236,-0.0174 0.29559,-0.01867 0.29559,-0.477364 0,-0.458695 -0.0589,-2.426083 -0.10335,-3.00255 -0.0388,-0.504412 -0.0778,-0.646312 -0.29507,-0.651256 z m -1.37615,0.05793 c -0.14893,0.0032 -0.34314,0.0168 -0.59686,0.04117 -1.0544,0.08214 -1.35717,0.08388 -1.32757,0.394204 0.0196,0.205955 0,0.295786 0.4439,0.304557 0.4439,0.0088 0.5769,0.03643 0.5917,0.465332 0.0148,0.428904 0.11857,2.158933 0.17776,2.557643 0.0592,0.3987 0.16248,0.411859 0.34004,0.379861 0.17755,-0.032 0.23715,-0.04747 0.19275,-0.475969 -0.0444,-0.428502 -0.15693,-1.861272 -0.16743,-2.331956 -0.0105,-0.470684 -0.0625,-0.741751 0.31419,-0.788707 0.37666,-0.04696 0.5542,-0.04954 0.5333,-0.289902 -0.0157,-0.180262 -0.055,-0.265716 -0.50178,-0.256229 z m 9.3431,-0.07294 c 0.68008,0.01171 0.77437,0.03172 0.75344,0.680699 -0.0209,0.648978 -0.0944,0.848513 -0.7431,0.836383 -0.64869,-0.01214 -0.78484,-0.114903 -0.75345,-0.753562 0.0314,-0.638657 0.11534,-0.744546 0.74311,-0.76352 z m -5.85959,0.308896 c 0.51047,-0.02172 0.52557,0.222257 0.54777,0.762034 0.0222,0.539774 -0.12573,0.564161 -0.2589,0.602958 -0.13317,0.0388 -0.6439,0.04542 -0.80667,0.04763 -0.16275,0.0022 -0.17762,-0.02699 -0.20722,-0.426104 -0.0226,-0.332621 -0.0294,-0.813258 -0.0294,-0.894638 0,-0.08137 0.24398,-0.07017 0.75447,-0.09188 z m 5.86993,1.626764 c 0.7324,5.5e-4 0.78457,0.05224 0.77411,0.617374 -0.0104,0.565132 -0.10434,0.754466 -0.65888,0.751524 -0.55453,-0.0029 -0.79517,-0.02071 -0.80563,-0.616946 -0.0104,-0.596238 0.0731,-0.764504 0.6904,-0.751952 z m -2.74092,0.07902 c 0.52314,0.0034 0.6904,0.0428 0.64854,0.681605 -0.0418,0.6388 -0.2095,0.683021 -0.74311,0.637945 -0.5336,-0.04508 -0.63821,-0.242446 -0.59635,-0.755692 0.0418,-0.513244 0.16778,-0.567226 0.69092,-0.563858 z m -3.03289,0.105719 c 0.51047,-0.02172 0.52557,0.22226 0.54777,0.762037 0.0222,0.539774 -0.12573,0.563642 -0.2589,0.602439 -0.13317,0.03879 -0.6439,0.04594 -0.80667,0.04814 -0.16275,0.0022 -0.17762,-0.02699 -0.20722,-0.426104 -0.0226,-0.332618 -0.0295,-0.813773 -0.0295,-0.895154 0,-0.08138 0.24399,-0.06965 0.75448,-0.09136 z"
id="path1083" />
<path
style="fill:#5c4e4f;fill-opacity:0.65876776;stroke:none;stroke-width:0.26458332px;stroke-linecap:butt;stroke-linejoin:miter;stroke-opacity:1"
d="m 272.40997,62.842097 c 2.25996,0 2.46922,0 2.67848,1.506646 0.20926,1.506646 0.41852,2.469224 -0.54406,2.594779 -0.96258,0.125553 -37.08024,1.883307 -39.42391,1.799603 -2.34367,-0.0837 -2.55293,0 -2.67848,-1.757751 -0.12556,-1.757754 -0.12556,-2.218119 0.96258,-2.343674 1.08813,-0.125553 34.94581,-1.841455 39.00539,-1.799603 z"
id="path1127" />
<path
style="fill:#d3d3d3;fill-opacity:1;stroke:none;stroke-width:0.26458332px;stroke-linecap:butt;stroke-linejoin:miter;stroke-opacity:1"
d="m 303.54434,58.137417 c 1.92516,-0.0837 2.43035,-0.317474 2.68147,1.607684 0.25109,1.925159 0.46035,5.524371 0.46035,6.821758 0,1.297389 -0.1674,1.548497 -1.75776,1.632201 -1.59033,0.0837 -3.22255,0.0837 -4.60362,-0.04185 -1.3811,-0.125553 -1.2137,-0.502216 -1.33924,-1.632198 -0.12557,-1.129986 -0.35933,-5.102882 -0.40119,-6.400272 -0.0419,-1.29739 0.007,-1.684206 0.90339,-1.802579 1.07531,-0.08077 2.7484,-0.181483 4.0566,-0.184744 z"
id="path1129" />
<path
style="fill:#fb630d;fill-opacity:1;stroke:none;stroke-width:0.26458332px;stroke-linecap:butt;stroke-linejoin:miter;stroke-opacity:1"
d="m 303.59789,59.602364 c 1.45007,0 1.62764,-0.26634 1.77562,1.24292 0.14795,1.50926 0.35509,4.113472 0.35509,5.119645 0,1.006171 -0.17756,1.035764 -1.47965,1.154139 -1.3021,0.118372 -2.42665,0.118372 -3.16648,0.05919 -0.73983,-0.05919 -0.88781,-0.207155 -1.00619,-1.06536 -0.11837,-0.858206 -0.26633,-3.965507 -0.29593,-4.971677 -0.0296,-1.006174 0.0296,-1.24292 0.53268,-1.331701 0.50308,-0.08878 1.74602,-0.177559 3.28486,-0.207153 z"
id="path1131" />
<path
style="fill:#d3d3d3;fill-opacity:1;stroke:none;stroke-width:0.26458332px;stroke-linecap:butt;stroke-linejoin:miter;stroke-opacity:1"
d="m 204.73645,62.549137 c 2.05072,-0.04185 2.21812,0.502216 2.42738,1.883307 0.20925,1.381093 0.50221,5.482518 0.54406,6.779908 0.0419,1.29739 -0.50221,1.381093 -2.25997,1.548498 -1.75775,0.167404 -3.38995,0.167404 -4.51993,0.125552 -1.12999,-0.04185 -1.42295,-0.418512 -1.59035,-1.548497 -0.16741,-1.129983 -0.54407,-5.608072 -0.58592,-6.905461 -0.0419,-1.29739 0.20926,-1.674051 1.08813,-1.757752 0.87888,-0.0837 2.72033,-0.167407 4.8966,-0.125555 z"
id="path1133" />
<path
style="fill:#fb630d;fill-opacity:1;stroke:none;stroke-width:0.26458332px;stroke-linecap:butt;stroke-linejoin:miter;stroke-opacity:1"
d="m 204.96335,63.982176 c 1.27251,-0.02959 1.21333,0.05919 1.42048,1.361292 0.20715,1.302107 0.38471,4.52778 0.41431,5.326798 0.0296,0.79902 -0.0296,0.769426 -1.47967,0.887801 -1.45007,0.118372 -2.92974,0.08878 -3.81754,0.08878 -0.8878,0 -0.91739,-0.177559 -1.03576,-0.946986 -0.11838,-0.769427 -0.34288,-4.610866 -0.37964,-5.458916 -0.0297,-0.68577 0.0545,-1.001812 0.72968,-1.07254 0.71648,-0.07505 1.98783,-0.12704 4.14814,-0.186227 z"
id="path1135" />
<g
id="g1863"
transform="matrix(0.07426997,-0.00314044,0,0.0831405,241.61914,51.074633)">
<path
style="fill:#df3e33"
d="m 80.458931,63.314209 c 0.32924,-0.9878 23.420579,-1.30336 110.083329,-1.5044 97.07027,-0.22519 109.6667,-0.08161 109.6667,1.25 0,1.33009 -12.75491,1.5044 -110.08333,1.5044 -87.62221,0 -109.998329,-0.25505 -109.666699,-1.25 z m 26.571209,-37.5 c -6.1419,-6.42509 -7.169429,-10.15901 -4.18564,-15.21017 3.2391,-5.4833497 5.51137,-6.0398297 24.66242,-6.0398297 h 17.48938 l -1.00675,3.96627 -1.00674,3.9662597 -10.03061,0.28374 c -8.23053,0.23281 -10.2264,0.59488 -11.12161,2.01757 -0.91036,1.44675 -0.14146,2.6934 4.64368,7.529 3.15408,3.18733 5.73469,6.11961 5.73469,6.51616 0,0.39655 -4.85867,0.721 -10.79705,0.721 h -10.79705 z m 36.22713,3.5 c 0.0266,-0.1375 1.49185,-5.65 3.25618,-12.25 l 3.20788,-11.9999997 14.37621,-0.27826 c 11.55905,-0.22374 14.83326,0.0212 16.70863,1.25 2.90887,1.90596 3.40279,1.91006 3.40279,0.02826 0,-1.25877 2.15679,-1.5 13.41111,-1.5 h 13.4111 l 2.5889,3.07673 c 3.15985,3.7552597 3.15324,3.5176797 0.38023,13.6732697 l -2.25269,8.25 h -8.26932 c -4.54813,0 -8.26446,-0.1125 -8.25851,-0.25 0.006,-0.1375 0.68096,-2.45902 1.5,-5.15893 2.25831,-7.4443 1.98919,-10.42747 -1.00858,-11.17986 -3.53073,-0.88616 -5.13962,-0.003 -5.93702,3.25803 -0.38067,1.55692 -1.37051,5.19326 -2.19963,8.08076 l -1.50751,5.25 h -8.32932 -8.32933 l 1.85313,-7.20435 c 2.11908,-8.23823 1.55738,-9.79565 -3.53287,-9.79565 -3.21432,0 -3.25033,0.0554 -5.51969,8.5 l -2.28426,8.5 h -8.35787 c -4.59683,0 -8.33613,-0.1125 -8.30956,-0.25 z m 72.95421,-1 c 0.002,-1.07557 4.01545,-16.85645 5.59488,-21.9999997 0.48676,-1.58516 2.29971,-1.75 19.24748,-1.75 19.90864,0 21.43189,0.32672 25.08896,5.38127 1.37629,1.9022097 1.48019,1.8440197 2.5886,-1.44976 l 1.15475,-3.43151 22.23493,-0.26933 22.23492,-0.26933 -0.70705,2.26933 c -2.12523,6.8210697 -1.90999,6.6564997 -9.11914,6.9726697 l -6.76414,0.29666 -2.12163,7.5 -2.12164,7.5 -8.15672,0.29044 c -9.35481,0.33311 -9.03968,0.79076 -6.2273,-9.04362 l 1.92941,-6.74682 h -6.42941 -6.42942 v 3.54966 c 0,1.95231 -0.68262,4.8697 -1.51693,6.48307 -2.41073,4.66184 -6.12058,5.96727 -16.95816,5.96727 -9.35737,0 -9.59652,-0.0582 -10.54966,-2.5651 -0.53639,-1.4108 -0.97525,-2.7608 -0.97525,-3 0,-0.23919 2.385,-0.4349 5.3,-0.4349 5.96504,0 7.7,-1.15889 7.7,-5.1433 0,-3.84179 -3.31255,-5.8567 -9.62851,-5.8567 h -5.18349 l -2.24546,8.5 -2.24547,8.5 h -7.84853 c -5.61351,0 -7.84782,-0.35596 -7.84602,-1.25 z"
id="path4826" />
<path
style="fill:#16130f"
d="m 85.007241,49.064209 1.53084,-5.5 h 13.33544 c 12.002109,0 13.535409,-0.19997 15.335439,-2 2.28336,-2.28336 2.37655,-2.8794 1.0115,-6.46976 l -0.9885,-2.59995 10.2385,0.28485 10.2385,0.28486 v 6.66997 c 0,5.72558 -0.35397,7.05351 -2.5,9.37887 -4.57579,4.95817 -7.2287,5.45116 -29.33417,5.45116 H 83.476391 Z m 52.281699,2.25 c 0.5172,-1.7875 1.88508,-6.7375 3.03974,-11 l 2.09938,-7.75 h 7.89045 c 4.33975,0 7.89823,0.3375 7.90773,0.75 0.01,0.4125 -1.21473,5.3625 -2.72053,11 l -2.73782,10.25 h -8.20966 -8.20966 z m 25.92002,2.10816 c 0,-0.62802 1.23116,-5.57802 2.73591,-11 l 2.73591,-9.85816 h 8.1935 8.19351 l -1.95435,6.75 c -1.07489,3.7125 -2.44655,8.6625 -3.04813,11 l -1.09378,4.25 h -7.88128 c -5.24021,0 -7.88129,-0.38264 -7.88129,-1.14184 z m 27.09552,-5.60816 c 1.07489,-3.7125 2.44655,-8.6625 3.04813,-11 l 1.09378,-4.25 h 7.94867 c 7.08942,0 7.89592,0.18918 7.46063,1.75 -0.26842,0.9625 -0.71964,2.65 -1.00272,3.75 -0.28307,1.1 -1.46283,5.2625 -2.62169,9.25 l -2.10701,7.25 h -7.88707 -7.88707 z m 19.10452,5.04437 c 0.25108,-0.9869 1.53678,-5.95687 2.8571,-11.04437 l 2.4006,-9.25 h 7.77113 c 4.27412,0 7.75274,0.3375 7.73027,0.75 -0.0225,0.4125 -1.26719,5.25 -2.76603,10.75 l -2.72517,10 -7.8622,0.29437 c -7.14237,0.26742 -7.82041,0.13009 -7.4057,-1.5 z m 37.39736,-0.04437 c -0.29555,-0.9625 -1.64342,-5.9125 -2.99526,-11 l -2.45788,-9.25 h 6.20536 c 3.95885,0 6.99833,0.55541 8.39571,1.53417 1.96428,1.37584 4.36032,7.6128 6.80583,17.71583 l 0.66566,2.75 h -8.04102 c -6.78674,0 -8.12485,-0.27298 -8.5784,-1.75 z m 23.93874,-1.41456 c 0.38228,-1.7405 1.67174,-6.578 2.86545,-10.75 l 2.1704,-7.58544 8.15471,-0.28948 8.15472,-0.28949 -1.96565,6.78949 c -1.0811,3.73421 -2.45784,8.70198 -3.05942,11.03948 l -1.09378,4.25 h -7.96074 -7.96074 z"
id="path4822" />
<path
id="path1820"
d="M 33.254631,62.714904 C 26.799418,61.315173 22.107174,58.715544 17.221648,53.832197 12.968063,49.580519 9.742983,44.205296 8.891655,39.948661 l -0.379667,-1.898336 7.535536,-0.434181 c 4.14454,-0.2388 10.532671,-0.435543 14.195843,-0.437203 l 6.66032,-0.0033 3.479935,-4.65018 3.479935,-4.650179 h 17.948426 17.948418 l -2.74836,3.64018 -2.74836,3.640181 -13.349602,0.17961 -13.349603,0.17961 -2.197635,2.989401 c -1.208701,1.644171 -2.908076,3.811486 -3.776384,4.816257 l -1.578749,1.826857 h -9.84734 -9.847348 l 2.96164,3.018963 c 1.628905,1.660427 4.605811,3.815446 6.615352,4.788928 3.107237,1.505237 4.547943,1.774056 9.632516,1.797294 5.303157,0.02424 6.429232,-0.193653 9.964671,-1.928177 5.08428,-2.494402 9.712099,-7.237041 11.66908,-11.958601 l 1.529478,-3.689845 h 4.208444 4.20842 l -0.39739,1.826856 c -0.21858,1.004772 -1.42056,3.962213 -2.67109,6.572093 -4.251706,8.873399 -12.310381,15.014028 -22.532811,17.169785 -5.571473,1.174941 -6.707732,1.172177 -12.250699,-0.02976 z M 0,35.269763 c 0,-0.317647 1.221191,-2.111288 2.713759,-3.985868 l 2.713752,-3.408336 h 13.176423 13.176418 l 3.382255,-4.65018 c 1.860238,-2.557599 3.453654,-4.696469 3.540932,-4.753041 0.08727,-0.0566 4.64278,-0.280785 10.123348,-0.498234 l 9.964671,-0.395372 -2.657245,-2.603556 C 54.672827,13.543227 51.533956,11.458026 49.159043,10.341405 43.59691,7.7262303 37.000164,7.5685703 30.980295,9.9069193 25.811587,11.914654 19.833262,17.793444 18.155006,22.518704 l -1.194765,3.36392 H 12.715106 8.46997 L 8.889908,23.723613 C 10.235663,16.80469 17.427864,7.5220943 24.314329,3.8161343 c 9.16296,-4.9310637 20.450122,-5.0930896 29.905963,-0.429285 5.261545,2.595086 11.220839,8.6762977 13.821549,14.1043337 1.2485,2.605748 2.44881,5.559815 2.66739,6.564585 l 0.39739,1.826856 H 56.874162 42.64169 l -3.398684,4.584573 C 37.373734,32.98871 35.377877,35.230762 34.807771,35.449532 33.160504,36.081645 0,35.910385 0,35.269763 Z"
style="fill:#df3e33;stroke-width:0.66431135" />
</g>
<path
style="fill:#252525;fill-opacity:1;stroke:none;stroke-width:0.99999994px;stroke-linecap:butt;stroke-linejoin:miter;stroke-opacity:1"
d="m 1082.4121,-87.048828 c -0.6801,0.0035 -1.3987,0.01791 -2.1601,0.03906 -12.1833,0.338419 -151.61486,5.751771 -208.80864,7.105469 -57.19381,1.353702 -159.3968,3.722656 -167.85742,3.722656 -8.46063,0 -7.78446,3.722605 -5.75391,14.890625 2.03055,11.168017 7.78444,38.920526 13.19922,63.2871098 5.41482,24.3665842 18.95079,113.3716382 25.38086,152.6289082 3.04581,20.64391 4.0609,23.68945 12.52148,23.68945 8.46063,0 368.88281,-13.19815 380.05081,-13.875 11.1679,-0.67685 11.8447,-2.3691 11.1679,-9.81445 -0.6768,-7.44534 -10.8284,-78.853106 -19.289,-132.324221 -8.4606,-53.471115 -19.629,-85.621046 -23.3516,-96.789062 -3.49,-10.470016 -4.8985,-12.612598 -15.0996,-12.560547 z m -389.21428,58.880859 c -1.09163,-0.196034 -1.73289,5.204216 -2.13477,19.6718752 -0.33842,23.3513098 2.70703,168.1965238 2.70703,173.6113238 0,5.41481 0.67755,9.47604 5.75391,9.81446 5.07636,0.33842 13.19795,0.33842 18.61273,0 5.415,-0.33843 6.09147,-2.02905 5.07617,-18.27344 -1.01526,-16.24439 -1.69192,-16.58305 -8.79883,-66.669922 -7.10695,-50.086866 -15.22899,-100.512738 -18.27484,-111.003906 -1.23735,-4.262037 -2.1945,-7.016262 -2.9414,-7.150391 z"
transform="scale(0.26458333)"
id="path1869" />
<path
style="fill:#171717;fill-opacity:1;stroke:none;stroke-width:0.26458332px;stroke-linecap:butt;stroke-linejoin:miter;stroke-opacity:1"
d="m 288.27904,-29.916225 c 0.31416,3.143888 0.85064,3.626432 -1.29836,3.760744 -2.149,0.134312 -72.70774,2.059456 -81.88574,2.148997 -9.17801,0.08954 -17.59492,0.179083 -19.43052,0.179083 -1.83561,0 -1.96992,-0.492478 -1.83561,-1.925143 0.13432,-1.432666 0.3134,-7.38718 0.94019,-10.700215 0.62679,-3.313039 0.80588,-3.895058 2.37285,-4.387538 1.56698,-0.492477 5.14864,-0.895416 9.44664,-1.387893 4.29799,-0.49248 27.08632,-2.686248 41.8159,-2.954872 14.72959,-0.268623 37.33883,0.671563 42.12932,1.253583 4.79047,0.582019 5.8202,0.62679 6.2679,2.999642 0.4477,2.372849 1.22774,8.514898 1.47743,11.013612 z"
id="path1882" />
<path
style="fill:#ded2c7;fill-opacity:1;stroke:none;stroke-width:0.26458332px;stroke-linecap:butt;stroke-linejoin:miter;stroke-opacity:1"
d="m 317.24573,-8.4710237 c 1.88037,0.6267907 2.0147,1.0297279 2.0147,2.8205591 0,1.5445916 -0.22391,1.8356017 -1.20883,2.7310175 -1.11927,0.8506446 -1.9699,1.2088109 -2.4176,-0.044771 -0.44773,-1.2535818 -0.48864,-2.8788378 -0.40295,-4.2756092 0.0972,-1.5849911 0.76109,-1.5893626 2.01468,-1.2311964 z"
id="path1886" />
<path
style="fill:#191919;fill-opacity:1;stroke:none;stroke-width:0.99999994px;stroke-linecap:butt;stroke-linejoin:miter;stroke-opacity:1"
d="m 650.11328,-79.056641 c -7.61458,0 -99.66457,1.521661 -106.77148,2.029297 -7.10691,0.50764 -6.93946,2.030135 -6.93946,13.875 0,11.844866 2.87767,148.400151 3.04688,162.783203 0,10.321951 -0.67703,13.537811 5.07617,13.707031 5.75324,0.16921 99.66596,0.50656 107.11133,0.67578 7.44533,0.16921 8.62962,-1.69192 8.79883,-5.07617 0.16932,-3.38424 -1.86062,-170.566015 -1.69141,-178.857422 0.16932,-8.291406 -1.01628,-9.136719 -8.63086,-9.136719 z m -147.38672,0.484375 c -1.05989,0.0066 -2.23938,0.02148 -3.55078,0.02148 -13.36781,0.169209 -147.72139,1.52415 -153.47461,1.693359 -5.75322,0.169213 -6.5989,2.199376 -6.42969,6.429688 0.16921,4.230308 2.0293,186.809629 2.0293,191.716789 0,4.90716 1.6e-4,5.58541 6.0918,5.92383 6.09165,0.33843 143.83127,2.19993 154.83008,2.36914 10.9988,0.16921 10.99804,-0.16972 10.99804,-7.10742 0,-6.93771 -1.18419,-180.381339 -1.35351,-191.210933 -0.14809,-9.475891 -1.72139,-9.882207 -9.14063,-9.835938 z m -177.66992,2.390625 c -23.01289,-0.169213 -146.3693,1.861329 -150.59961,1.861329 -4.23031,-10e-7 -5.07564,1.184453 -5.41406,7.445312 -0.33842,6.260859 -0.16868,183.93553 -0.33789,187.6582 -0.16922,3.72268 -0.6774,4.90572 5.92187,5.24414 6.59929,0.33842 150.59924,1.35423 155.16797,1.52344 4.56874,0.16921 6.26172,-1.3544 6.26172,-5.7539 0,-4.39954 -1.18626,-185.795078 -1.35547,-191.886724 -0.16921,-6.091646 -1.0147,-6.091797 -9.64453,-6.091797 z m -172.08789,2.201172 c -15.22911,0.169213 -139.093909,2.706503 -143.3242188,3.044922 -4.2303098,0.338427 -4.569068,1.523236 -4.7382812,6.599609 -0.1692125,5.076371 -0.8449945,179.872148 -0.6757812,182.917968 0.1692119,3.04582 1.0157839,5.07688 5.2460937,5.24609 4.2303095,0.16921 138.0763275,1.69212 144.1679675,1.86133 6.09165,0.16921 7.78392,-0.84674 7.95313,-5.7539 0.16922,-4.90716 5.2e-4,-184.271644 -0.33789,-188.501956 -0.33843,-4.230308 -0.16882,-5.583272 -8.29102,-5.414063 z m -164.837891,4.039063 c -0.916457,0.0083 -1.921603,0.02148 -3.021484,0.02148 -16.752026,0.507636 -130.124085,1.861328 -135.031255,1.861328 -4.90715,0 -4.90767,1.184104 -5.24609,6.429688 -0.33843,5.245583 2.20046,175.47389 2.03125,179.02735 -0.16921,3.55346 0.33769,4.90767 5.41406,5.24609 5.07637,0.33842 131.478311,1.35352 138.4160194,1.35352 6.9377077,0 7.1061781,-1.18446 7.2753906,-7.44532 0.1692124,-6.26085 -1.0143813,-172.09052 -1.1835938,-179.705078 -0.1480606,-6.662738 -2.2390975,-6.846899 -8.6542972,-6.789062 z m -158.416019,2.501953 c -1.12499,-0.0059 -2.39568,0.01434 -3.83398,0.05664 -14.72148,0.338421 -108.29703,1.86204 -112.52734,2.03125 -4.23031,0.169212 -4.23047,1.691739 -4.23047,6.429687 0,4.737944 1.69212,167.013996 1.86133,173.613286 0.16921,6.59928 1.18499,6.9375 7.10742,6.9375 5.92244,0 105.58803,1.35351 113.54101,1.35351 7.95298,0 9.13743,-1.18461 9.30664,-9.81445 0.16921,-8.62983 -2.02877,-169.04419 -2.36718,-174.458987 -0.29613,-4.737947 -0.98244,-6.106792 -8.85743,-6.148437 z m -136.66601,2.087891 c -7.78377,-0.16921 -52.62585,1.522369 -60.74805,2.199218 -8.12219,0.676849 -9.30664,1.861832 -9.30664,8.96875 0,7.106922 -0.50621,146.029748 0.33984,162.443364 0.33842,12.18328 -0.1698,14.89062 11.50586,14.89062 11.67566,0 52.62515,-0.16868 60.57813,-0.33789 7.95299,-0.16921 9.13742,-0.50636 9.30664,-7.61328 0.16921,-7.10692 -2.19922,-164.982923 -2.19922,-172.089845 0,-7.106922 -1.69279,-8.291725 -9.47656,-8.460937 z m -177.16602,6.769531 c -7.95295,-0.169213 -57.87089,1.184306 -61.08593,1.353515 -3.21502,0.169214 -3.55236,1.353317 -3.89063,6.429688 -0.33846,5.07637 -1.18397,161.090518 -0.8457,166.843748 0.33842,5.75323 1.69191,7.61328 8.79883,7.61328 h 59.73046 c 5.24561,0 6.60021,-1.18355 6.76954,-8.6289 0.50742,-13.19857 7.5e-4,-162.952221 -0.3379,-167.859378 -0.33841,-4.907161 -1.18567,-5.582744 -9.13867,-5.751953 z m 78.6836,25.888672 c -5.24561,0 -32.82652,0.846587 -37.56446,1.523437 -4.73794,0.676849 -6.76829,1.015418 -6.9375,7.953125 -0.16932,6.937708 -1.18554,131.139177 -1.18554,138.246097 0,7.10692 0.67827,9.30664 4.0625,9.30664 3.38426,0 26.05765,0.16974 36.54882,-0.33789 9.81434,0.16921 10.49166,-0.3384 10.83008,-5.58399 0.33827,-5.24558 0.33843,-137.570635 0.50781,-144.169919 0.16933,-6.599283 -1.01615,-6.9375 -6.26171,-6.9375 z M 542.10938,118.54297 c -0.83235,0.006 -1.33908,0.0179 -1.47657,0.0391 -2.19976,0.33843 -2.36854,1.35385 -2.19922,6.0918 0.16921,4.73794 1.52377,5.41458 8.12305,6.9375 6.59928,1.52291 104.06565,26.73667 109.48047,27.75195 5.41478,1.01527 7.10607,2.36756 7.27539,-2.20117 0.16921,-4.56874 -0.33947,-25.38083 -0.67773,-30.96484 -0.33842,-5.58401 -0.67683,-5.92259 -7.44532,-6.0918 -14.75319,-0.15864 -100.59488,-1.65483 -113.08007,-1.5625 z"
transform="scale(0.26458333)"
id="path2039" />
<path
style="fill:#e7ded6;fill-opacity:1;stroke:none;stroke-width:0.26458332px;stroke-linecap:butt;stroke-linejoin:miter;stroke-opacity:1"
d="m 167.08945,-10.206527 c 5.00192,-0.316578 5.63507,0.189946 5.95165,2.5959328 0.31658,2.4059869 0,9.6872626 -0.12663,11.5867258 -0.12663,1.8994633 -0.25326,2.9758258 -5.38181,3.1024567 -5.12855,0.1266309 -5.06524,-0.7597854 -5.50844,-2.0260942 -0.44321,-1.2663088 -1.64621,-8.6108999 -1.45626,-11.5867258 0.18995,-2.9758258 0.41248,-3.2955848 6.52149,-3.6722953 z"
id="path1888" />
<path
style="fill:#ded2c7;fill-opacity:1;stroke:none;stroke-width:0.26458332px;stroke-linecap:butt;stroke-linejoin:miter;stroke-opacity:1"
d="m 167.26363,-6.0534017 c 3.04441,0.3133955 3.31303,2.5967052 3.22349,3.8502869 -0.0895,1.2535818 -0.80587,3.4025792 -3.31303,3.4473499 -2.50717,0.044771 -3.67121,-1.88037264 -3.76075,-3.5368915 -0.0895,-1.6565186 0.62679,-3.805516 3.85029,-3.7607453 z"
id="path1890" />
<path
style="fill:#f2e7de;fill-opacity:1;stroke:none;stroke-width:0.99999994px;stroke-linecap:butt;stroke-linejoin:miter;stroke-opacity:1"
d="m 660.77344,-68.904297 c -3.04581,-0.169209 -23.68943,3.89186 -27.41211,5.583985 -3.72265,1.692124 -3.72142,2.876228 -3.89063,6.429687 -0.16932,3.553459 -0.67793,7.953837 0.67578,8.123047 1.35368,0.169209 1.35476,1.183578 1.18555,4.90625 -0.16932,3.722672 -2.53943,37.7336163 -3.55469,48.7324218 -0.16932,6.7684952 -0.67632,6.9382102 1.52344,7.1074222 2.19972,0.169213 3.55416,-6.94e-4 3.89258,-3.8925785 0.33827,-3.891885 1.69159,-30.2884955 2.19922,-38.0722655 0.50763,-7.78377 1.18449,-15.397527 1.86133,-20.304688 0.67683,-4.907157 -0.33796,-6.599432 8.46093,-6.091796 8.79905,0.507639 10.15306,0.339111 10.32227,3.892578 0.16932,3.553462 -1.35426,14.043681 2.19922,14.21289 3.55343,0.16921 9.64524,-0.338429 9.81445,1.861328 0.16932,2.199761 2.53727,-31.473734 1.1836,-28.935546 -1.35372,2.538183 -1.69174,3.04563 -2.70704,3.214843 -1.01525,0.16921 -2.19922,0.169392 -2.19922,-1.353515 0,-1.522916 -0.50887,-5.244853 -3.55468,-5.414063 z m -8.25586,5.560547 c 1.13669,0 0.77846,1.376897 0.71875,2.992188 -0.0598,1.61529 -0.65897,1.615234 -2.99219,1.615234 -2.33318,0 -5.44384,-0.18064 -8.07617,-0.419922 -2.63233,-0.239305 -1.67507,-1.436301 2.27344,-2.632812 3.70915,-1.196527 6.93948,-1.554688 8.07617,-1.554688 z"
transform="scale(0.26458333)"
id="path1892" />
<g
id="g2012"
style="fill:#d06a1f;fill-opacity:1;stroke:none">
<path
id="path1897"
transform="scale(0.26458333)"
d="m 717.12305,-154.86523 c -6.76781,0.37112 -8.5271,2.10302 -9.26563,5.37304 -0.83772,3.70918 -1.19775,19.86245 0.0586,23.03321 1.13446,2.86314 5.14564,2.63137 8.3164,2.51171 3.17076,-0.11964 4.12824,0.41999 4.24805,2.69336 0.11981,2.27337 0.11981,4.96444 0,8.49414 -0.11966,3.52972 -1.43724,2.93113 -2.87305,3.05079 -1.4358,0.11964 -1.50157,-0.48295 -1.83984,-2.00586 -0.33842,-1.52291 -1.85992,-1.52397 -5.24414,-1.18555 -3.38427,0.33842 -2.53847,1.86237 -2.36914,6.76953 0.16921,4.90716 1.35383,6.09109 9.81445,5.92188 8.46062,-0.16921 11.16812,-3.55271 11.67578,-9.13672 0.50763,-5.58401 -8.6e-4,-29.95097 -0.67773,-36.88868 -0.67684,-6.93771 -4.22921,-8.46164 -11.84375,-8.63085 z m 0.30664,9.56054 c 2.87161,0 2.75128,2.99198 2.87109,6.70117 0.11966,3.70919 -0.95812,4.6655 -2.99219,4.78516 -2.0341,0.11965 -2.39228,-5.5e-4 -2.51171,-4.90625 -0.11966,-4.30745 -0.23884,-6.58008 2.63281,-6.58008 z"
style="fill:#d06a1f;fill-opacity:1;stroke:none;stroke-width:0.99999994px;stroke-linecap:butt;stroke-linejoin:miter;stroke-opacity:1" />
<path
id="path1902"
transform="scale(0.26458333)"
d="m 747.93945,-156.19336 c -5.98254,0.11965 -11.12695,2.51317 -11.12695,10.41016 0,7.89698 1.1964,12.20429 3.23047,13.75976 2.03425,1.55546 2.15321,3.70864 0.11914,5.62305 -2.03407,1.91442 -3.3499,1.91591 -3.23047,12.92383 0.11966,11.00791 7.29988,12.80078 12.08594,12.80078 4.78605,0 11.48633,-3.70873 11.48633,-12.92188 0,-9.21314 -2.27462,-11.00694 -3.83008,-13.04101 -1.55562,-2.03407 -2.63181,-4.90632 -0.11914,-7.17969 2.51274,-2.27337 3.46983,-4.78543 2.75195,-11.12695 -0.71792,-6.34151 -2.15402,-11.12839 -11.36719,-11.24805 z m 0.11914,9.69141 c 3.11093,0.11966 3.23243,0.47906 3.23243,5.38476 0,4.9057 -0.71984,6.93946 -2.75391,6.93946 -2.03407,0 -3.35009,-0.3583 -3.23047,-6.10157 0.11981,-5.74326 0.11978,-6.103 2.75195,-6.22265 z m 0.24024,23.81054 c 3.11093,0.11966 3.23047,0.47907 3.23047,5.38477 0,4.9057 -0.71789,6.93945 -2.75196,6.93945 -2.03406,0 -3.35009,-0.35829 -3.23046,-6.10156 0.1198,-5.74326 0.11977,-6.10301 2.75195,-6.22266 z"
style="fill:#d06a1f;fill-opacity:1;stroke:none;stroke-width:0.99999994px;stroke-linecap:butt;stroke-linejoin:miter;stroke-opacity:1" />
<path
id="path1910"
d="m 207.4847,-41.421042 c 1.26631,0.03166 1.45626,0.06332 1.45626,1.329627 0,1.266309 -0.31658,1.456253 -1.203,1.456253 -0.88641,0 -1.67785,-0.06331 -2.18438,0.03166 -0.50652,0.09497 -0.50652,0.411551 -0.47486,1.424598 0.0316,1.013048 0.0316,1.361282 0.75978,1.361282 0.72813,0 3.0708,-0.158287 3.26075,2.975827 0.18994,3.134113 -0.34824,5.635074 -1.96278,5.825019 -1.61454,0.189947 -3.32406,0.06332 -3.76727,-0.728126 -0.44321,-0.791443 -0.34824,-1.487913 -0.28492,-2.247699 0.0633,-0.759785 0.2216,-0.664813 1.13968,-0.633156 0.91807,0.03166 1.07636,0.189947 1.07636,0.474867 0,0.284919 0.0317,0.601498 0.6015,0.633155 0.56983,0.03166 0.8231,0.06331 0.88641,-0.918075 0.0633,-0.981389 0.0336,-1.439461 0,-1.917349 -0.0633,-0.900188 -0.56984,-0.963503 -1.58288,-0.963503 -0.50653,0 -0.61683,-0.02363 -1.41273,-0.01583 -0.66049,0.0065 -0.71383,-0.358759 -0.76622,-0.905155 -0.0735,-0.766533 -0.10041,-4.935697 -0.10041,-5.853769 0,-0.918075 0.18995,-1.202994 0.75979,-1.234652 0.56984,-0.03166 2.65925,-0.09497 3.79892,-0.09497 z"
style="fill:#d06a1f;fill-opacity:1;stroke:none;stroke-width:0.26458332px;stroke-linecap:butt;stroke-linejoin:miter;stroke-opacity:1" />
<path
id="path1912"
d="m 214.2278,-41.547671 c 1.13968,0.03166 1.61454,0.221604 1.70951,1.076362 0.095,0.854758 -0.20932,0.727898 -0.61225,0.772668 -0.40294,0.04477 -0.58202,-0.04477 -0.60441,-0.358167 -0.0224,-0.313396 -0.0671,-0.693946 -0.42532,-0.671562 -0.35817,0.02238 -0.58202,0.134313 -0.51486,2.193769 0.0671,2.059455 0.20146,2.417622 0.51486,2.440008 0.31339,0.02238 0.55963,-0.134313 0.58202,-0.492479 0.0224,-0.358167 0.11193,-0.425323 0.58202,-0.44771 0.47009,-0.02238 0.53725,0.20147 0.53725,0.514866 0,0.313394 -0.1567,1.141653 -1.67891,1.16404 -1.5222,0.02238 -1.8356,-1.0745 -1.94752,-2.260926 -0.11193,-1.186423 0.13431,-2.350465 0.40294,-3.044412 0.26862,-0.693946 0.84988,-0.855115 1.45467,-0.886457 z"
style="fill:#d06a1f;fill-opacity:1;stroke:none;stroke-width:0.26458332px;stroke-linecap:butt;stroke-linejoin:miter;stroke-opacity:1" />
<path
id="path1914"
d="m 217.51883,-41.511857 c 0.62679,0 0.73871,0.02238 0.73871,0.693946 0,0.671561 0,1.11927 -0.0224,1.566977 -0.0224,0.447709 0.1567,0.447709 0.38055,0.447709 0.22385,0 0.42532,0.02238 0.42532,-0.447709 0,-0.470093 0.0448,-1.253583 0.0672,-1.768446 0.0224,-0.514864 0.0672,-0.604406 0.55963,-0.58202 0.49248,0.02238 0.73872,-0.02238 0.78349,0.783489 0.0448,0.805874 0.0448,3.447349 0.0448,4.342765 0,0.895416 -0.0895,1.007343 -0.62679,1.029727 -0.53725,0.02238 -0.85064,0 -0.85064,-0.33578 0,-0.33578 0.0224,-0.828258 0.0223,-1.611748 -2e-5,-0.561424 -0.0448,-0.693948 -0.38055,-0.716331 -0.33578,-0.02238 -0.33578,0.425323 -0.33578,1.499819 0,1.0745 -0.13431,1.16404 -0.73872,1.16404 -0.6044,0 -0.7611,-0.08954 -0.80587,-0.67156 -0.0448,-0.58202 -0.11193,-4.096525 -0.0895,-4.656161 0.0224,-0.559634 0.0895,-0.693947 0.82826,-0.738717 z"
style="fill:#d06a1f;fill-opacity:1;stroke:none;stroke-width:0.26458332px;stroke-linecap:butt;stroke-linejoin:miter;stroke-opacity:1" />
<path
id="path1916"
transform="scale(0.26458333)"
d="m 842.50781,-157.99414 c -4.06106,-0.0846 -6.59885,0.75993 -6.9375,4.99023 -0.33827,4.23032 -0.33827,8.54579 0,12.94532 0.33846,4.39951 2.03088,6.26171 6.59961,6.26171 4.56873,0 6.76878,-2.11673 7.10742,-4.57031 0.33827,-2.45358 0.42301,-7.86804 0,-12.26758 -0.42304,-4.39951 -1.43934,-7.35937 -6.76953,-7.35937 z M 842,-153.84961 c 1.60751,0 2.20053,0.33866 2.28516,4.48438 0.0847,4.1457 0.16932,6.93705 0,9.39062 -0.16933,2.45358 -0.59153,2.87695 -1.69141,2.87695 -1.09988,0 -1.43953,-0.42177 -1.69336,-3.89062 -0.25361,-3.46885 -0.42323,-5.24573 -0.50781,-7.95313 0.16932,-4.56874 -9e-5,-4.9082 1.60742,-4.9082 z"
style="fill:#d06a1f;fill-opacity:1;stroke:none;stroke-width:0.99999994px;stroke-linecap:butt;stroke-linejoin:miter;stroke-opacity:1" />
<path
id="path1921"
transform="scale(0.26458333)"
d="m 858.75195,-158.50195 c -4.0611,0 -6.68291,3.13004 -6.76757,6.42968 -0.0847,3.29965 -0.0853,12.43767 0.084,14.80665 0.16921,2.36898 0.67772,2.79101 2.53906,2.79101 1.86131,0 2.36944,-0.50763 2.62305,-1.86133 0.25398,-1.3537 0.0833,-2.6233 0.16797,-5.24609 0.0846,-2.62279 0.42292,-3.29943 1.60742,-3.21485 1.18462,0.0846 1.35411,0.1692 1.52344,1.86133 0.16932,1.69212 0,2.96164 0,4.99219 0,2.03055 -0.42288,3.21484 2.36914,3.21484 2.79197,0 3.72198,-0.16892 3.80664,-2.96093 0.0846,-2.792 -0.25274,-8.20728 -0.67578,-12.69141 -0.42301,-4.48413 -1.3549,-8.20568 -7.27735,-8.12109 z m -0.33007,4.29492 c 0.15368,-0.008 0.3202,-0.002 0.5,0.0195 1.43818,0.16922 1.69208,1.10048 1.60742,3.63867 -0.0846,2.5382 -0.591,2.36779 -2.0293,2.28321 -1.43826,-0.0846 -1.52344,-0.76207 -1.52344,-3.63868 -0.074,-1.4806 0.36954,-2.24721 1.44532,-2.30273 z"
style="fill:#d06a1f;fill-opacity:1;stroke:none;stroke-width:0.99999994px;stroke-linecap:butt;stroke-linejoin:miter;stroke-opacity:1" />
<path
style="fill:#d06a1f;fill-opacity:1;stroke:none;stroke-width:0.26458332px;stroke-linecap:butt;stroke-linejoin:miter;stroke-opacity:1"
d="m 233.60233,-42.054195 c 1.13968,0.03166 1.61454,0.221604 1.70951,1.076362 0.095,0.854758 -0.20932,0.727898 -0.61225,0.772668 -0.40294,0.04477 -0.58202,-0.04477 -0.60441,-0.358167 -0.0224,-0.313396 -0.0671,-0.693946 -0.42532,-0.671562 -0.35817,0.02238 -0.58202,0.134313 -0.51486,2.193769 0.0671,2.059455 0.20146,2.417622 0.51486,2.440008 0.31339,0.02238 0.55963,-0.134313 0.58202,-0.492479 0.0224,-0.358167 0.11193,-0.425323 0.58202,-0.44771 0.47009,-0.02238 0.53725,0.20147 0.53725,0.514866 0,0.313394 -0.1567,1.141653 -1.67891,1.16404 -1.5222,0.02238 -1.8356,-1.0745 -1.94752,-2.260926 -0.11193,-1.186423 0.13431,-2.350465 0.40294,-3.044412 0.26862,-0.693946 0.84988,-0.855115 1.45467,-0.886457 z"
id="path1926" />
<path
style="fill:#d06a1f;fill-opacity:1;stroke:none;stroke-width:0.26458332px;stroke-linecap:butt;stroke-linejoin:miter;stroke-opacity:1"
d="m 236.89336,-42.018381 c 0.62679,0 0.73871,0.02238 0.73871,0.693946 0,0.671561 0,1.11927 -0.0224,1.566977 -0.0224,0.447709 0.1567,0.447709 0.38055,0.447709 0.22385,0 0.42532,0.02238 0.42532,-0.447709 0,-0.470093 0.0448,-1.253583 0.0672,-1.768446 0.0224,-0.514864 0.0672,-0.604406 0.55963,-0.58202 0.49248,0.02238 0.73872,-0.02238 0.78349,0.783489 0.0448,0.805874 0.0448,3.447349 0.0448,4.342765 0,0.895416 -0.0895,1.007343 -0.62679,1.029727 -0.53725,0.02238 -0.85064,0 -0.85064,-0.33578 0,-0.33578 0.0224,-0.828258 0.0223,-1.611748 -2e-5,-0.561424 -0.0448,-0.693948 -0.38055,-0.716331 -0.33578,-0.02238 -0.33578,0.425323 -0.33578,1.499819 0,1.0745 -0.13431,1.16404 -0.73872,1.16404 -0.6044,0 -0.7611,-0.08954 -0.80587,-0.67156 -0.0448,-0.58202 -0.11193,-4.096525 -0.0895,-4.656161 0.0224,-0.559634 0.0895,-0.693947 0.82826,-0.738717 z"
id="path1928" />
<path
style="fill:#d06a1f;fill-opacity:1;stroke:none;stroke-width:0.26458332px;stroke-linecap:butt;stroke-linejoin:miter;stroke-opacity:1"
d="m 253.10747,-42.570128 c -1.0745,0 -1.76819,0.828157 -1.79059,1.701186 -0.0224,0.873033 -0.0226,3.290801 0.0222,3.917593 0.0448,0.626793 0.17932,0.738455 0.6718,0.738455 0.49247,0 0.62691,-0.134311 0.69401,-0.492477 0.0672,-0.358166 0.022,-0.694081 0.0444,-1.388028 0.0224,-0.693946 0.1119,-0.872974 0.4253,-0.850596 0.31343,0.02239 0.35827,0.04477 0.40308,0.492477 0.0448,0.447707 0,0.783601 0,1.32085 0,0.53725 -0.11189,0.850594 0.62683,0.850594 0.73871,0 0.98478,-0.04469 1.00717,-0.783413 0.0224,-0.738717 -0.0669,-2.17151 -0.1788,-3.357936 -0.11192,-1.186426 -0.35848,-2.171086 -1.92546,-2.148705 z m -0.0873,1.136365 c 0.0407,-0.0021 0.0847,-4.29e-4 0.13229,0.0052 0.38052,0.04477 0.4477,0.291168 0.4253,0.962731 -0.0224,0.671566 -0.15637,0.626478 -0.53692,0.6041 -0.38054,-0.02239 -0.40308,-0.201631 -0.40308,-0.962735 -0.0196,-0.391742 0.0978,-0.594574 0.38241,-0.609263 z"
id="path1930" />
<path
id="path1932"
d="m 255.32351,-34.719013 c -1.0745,0 -1.76819,0.828157 -1.79059,1.701186 -0.0224,0.873033 -0.0226,3.290801 0.0222,3.917593 0.0448,0.626793 0.17932,0.738455 0.6718,0.738455 0.49247,0 0.62691,-0.134311 0.69401,-0.492477 0.0672,-0.358166 0.022,-0.694081 0.0444,-1.388028 0.0224,-0.693946 0.1119,-0.872974 0.4253,-0.850596 0.31343,0.02239 0.35827,0.04477 0.40308,0.492477 0.0448,0.447707 0,0.783601 0,1.32085 0,0.53725 -0.11189,0.850594 0.62683,0.850594 0.73871,0 0.98478,-0.04469 1.00717,-0.783413 0.0224,-0.738717 -0.0669,-2.17151 -0.1788,-3.357936 -0.11192,-1.186426 -0.35848,-2.171086 -1.92546,-2.148705 z m -0.0873,1.136365 c 0.0407,-0.0021 0.0847,-4.29e-4 0.13229,0.0052 0.38052,0.04477 0.4477,0.291168 0.4253,0.962731 -0.0224,0.671566 -0.15637,0.626478 -0.53692,0.6041 -0.38054,-0.02239 -0.40308,-0.201631 -0.40308,-0.962735 -0.0196,-0.391742 0.0978,-0.594574 0.38241,-0.609263 z"
style="fill:#d06a1f;fill-opacity:1;stroke:none;stroke-width:0.26458332px;stroke-linecap:butt;stroke-linejoin:miter;stroke-opacity:1" />
<path
id="path1934"
d="m 241.22495,-42.22819 c 0.62679,0.02238 0.78349,0.02238 0.78349,0.87303 0,0.850643 -0.0671,2.910099 -0.0224,3.536891 0.0448,0.62679 0.0672,0.87303 0.35817,0.87303 0.29101,0 0.40293,-0.179083 0.40293,-0.895416 0,-0.716333 0.0448,-2.753402 0.0895,-3.514505 0.0448,-0.761103 0.0448,-0.87303 0.60441,-0.87303 0.55963,0 0.64917,0.156697 0.69395,1.029727 0.0448,0.873029 0.0895,3.223495 0,3.939828 -0.0896,0.716333 -0.42533,1.208812 -1.74606,1.208812 -1.32074,0 -1.67891,-0.402936 -1.79083,-1.634132 -0.11193,-1.231199 -0.0672,-3.223499 -0.0448,-3.805518 0.0224,-0.58202 0.0672,-0.716333 0.67157,-0.738717 z"
style="fill:#d06a1f;fill-opacity:1;stroke:none;stroke-width:0.26458332px;stroke-linecap:butt;stroke-linejoin:miter;stroke-opacity:1" />
<path
id="path1936"
d="m 247.04515,-40.862681 c 0.0672,-1.365509 0,-1.566979 0.6268,-1.566979 0.62679,0 0.73871,0.06716 0.73871,0.671563 0,0.604404 -0.11192,1.566976 0.17909,1.275966 0.29101,-0.291009 0.73871,-1.052113 0.98495,-1.410279 0.24624,-0.358166 0.42533,-0.223853 0.67157,-0.06716 0.24624,0.1567 0.35816,0.44771 0,1.052113 -0.35817,0.604407 -0.55964,0.940187 -0.67157,1.231197 -0.11192,0.29101 -0.0224,0.537249 0.24624,0.895416 0.26863,0.358166 0.69395,1.074499 0.85065,1.544592 0.1567,0.470093 -0.0895,0.87303 -0.51487,0.9178 -0.42532,0.04477 -0.58202,-0.470093 -0.89541,-1.052113 -0.3134,-0.58202 -0.67156,-0.62679 -0.67156,-0.156697 0,0.470094 0.0224,0.850644 -0.0448,1.0745 -0.0672,0.223853 -0.1567,0.223853 -0.73872,0.246237 -0.58202,0.02238 -0.76111,-0.06715 -0.78349,-0.358164 -0.0224,-0.291013 -0.0448,-2.999645 0.0224,-4.297995 z"
style="fill:#d06a1f;fill-opacity:1;stroke:none;stroke-width:0.26458332px;stroke-linecap:butt;stroke-linejoin:miter;stroke-opacity:1" />
<path
id="path1938"
d="m 255.58685,-41.065049 c 0.0218,-1.366299 0.0871,-1.455891 0.78374,-1.47829 0.69667,-0.02239 0.63136,0.223983 1.15385,1.388695 0.5225,1.164715 0.84906,1.388697 0.84906,0.851138 0,-0.537561 0,-1.321502 0.0436,-1.769468 0.0436,-0.447966 0.0653,-0.559957 0.67489,-0.559957 0.60958,0 0.71843,0.06719 0.78374,0.716745 0.0654,0.649551 0.087,3.919707 0.0436,4.614055 -0.0436,0.694347 10e-6,0.918331 -0.65311,0.918331 -0.7083,-0.01198 -0.6791,-0.458911 -1.02323,-1.500688 -0.46347,-1.403104 -1.1103,-1.903858 -1.1103,-1.119915 0,0.783943 0.0218,1.366299 0,1.948655 -0.0218,0.582356 -0.15239,0.627151 -0.76198,0.627151 -0.60958,0 -0.7402,-0.0672 -0.76196,-0.470364 -0.0218,-0.403169 -0.0218,-2.284628 -0.0218,-4.166087 z"
style="fill:#d06a1f;fill-opacity:1;stroke:none;stroke-width:0.26100048px;stroke-linecap:butt;stroke-linejoin:miter;stroke-opacity:1" />
<path
id="path1940"
d="m 262.62538,-42.922137 c 1.43267,0.04477 1.49983,0.02238 1.5446,0.514864 0.0448,0.492477 -0.40294,0.649176 -1.27597,0.67156 -0.87303,0.02238 -1.05211,0.08954 -1.02973,1.947529 0.0224,1.857989 0.11193,2.350466 0.73872,2.328082 0.62679,-0.02238 0.98496,-0.179083 0.96257,-0.940186 -0.0224,-0.761103 -0.13431,-0.895417 -0.58202,-0.895417 -0.44771,0 -0.47009,-0.246239 -0.47009,-0.537249 0,-0.29101 0.0448,-0.33578 1.02973,-0.33578 0.98495,0 1.2312,-0.04477 1.29835,0.783487 0.0671,0.828259 -0.11192,2.037072 -0.82826,2.484778 -0.71633,0.44771 -1.88037,0.335783 -2.70863,0.179084 -0.82826,-0.156697 -0.94019,-1.477436 -0.9178,-2.954872 0.0224,-1.477436 0.26862,-3.223496 2.23853,-3.24588 z"
style="fill:#d06a1f;fill-opacity:1;stroke:none;stroke-width:0.26458332px;stroke-linecap:butt;stroke-linejoin:miter;stroke-opacity:1" />
<path
id="path1942"
transform="scale(0.26458333)"
d="m 817.57617,-126.75977 c -5.30286,0.0166 -5.35607,0.66183 -5.52539,3.62305 -0.16894,2.96121 -0.33984,16.49841 -0.33984,17.51367 0,1.01527 -0.67526,2.3679 4.57031,2.53711 5.24561,0.16921 7.27452,-1.18429 8.45898,-3.21484 1.18451,-2.03055 -0.10334,-5.9808 -1.06054,-6.81836 -0.95717,-0.83756 -1.67608,-2.39291 -0.24024,-3.23047 1.43581,-0.83756 1.91535,-1.91454 2.03516,-4.54687 0.11962,-2.63233 -2.3945,-5.98295 -7.89844,-5.86329 z m 0.54297,4.04493 c 1.77676,0 2.53187,1.94716 2.45703,3.55468 -0.0749,1.60752 -1.48431,2.79161 -3.08789,2.70704 -1.60358,-0.0846 -1.56751,-0.84667 -1.4375,-3.63868 0.0985,-2.11515 0.29164,-2.62304 2.06836,-2.62304 z m -0.14648,10.40625 c 1.77675,0 2.62304,1.94716 2.62304,3.55468 0,1.60752 -1.35343,2.79162 -2.96093,2.70703 -1.60751,-0.0846 -1.60743,-0.84666 -1.60743,-3.63867 0,-2.11515 0.1686,-2.62304 1.94532,-2.62304 z"
style="fill:#d06a1f;fill-opacity:1;stroke:none;stroke-width:0.99999994px;stroke-linecap:butt;stroke-linejoin:miter;stroke-opacity:1" />
<path
id="path1950"
d="m 220.11553,-28.461176 c 0.55964,0.04477 0.57083,0.223853 0.57083,0.481285 0,0.257432 -0.0112,0.559636 -0.42532,0.570828 -0.41413,0.01119 -0.63799,-0.111927 -0.63799,-0.526058 0,-0.414128 0.14551,-0.503671 0.49248,-0.526055 z"
style="fill:#d06a1f;fill-opacity:1;stroke:none;stroke-width:0.26458332px;stroke-linecap:butt;stroke-linejoin:miter;stroke-opacity:1" />
<path
style="fill:#d06a1f;fill-opacity:1;stroke:none;stroke-width:0.26458332px;stroke-linecap:butt;stroke-linejoin:miter;stroke-opacity:1"
d="m 223.72493,-33.855099 c -1.40305,0.0044 -1.41712,0.175109 -1.46192,0.958598 -0.0447,0.783487 -0.0899,4.365205 -0.0899,4.633825 0,0.268624 -0.17866,0.626507 1.20923,0.671278 1.3879,0.04477 1.92471,-0.313344 2.2381,-0.850594 0.3134,-0.537249 -0.0273,-1.58242 -0.2806,-1.804024 -0.25325,-0.221604 -0.44346,-0.633124 -0.0636,-0.854728 0.37989,-0.221605 0.50677,-0.506556 0.53847,-1.203026 0.0317,-0.696471 -0.63355,-1.582989 -2.0898,-1.551329 z m 0.14366,1.070221 c 0.4701,0 0.66989,0.515186 0.65009,0.940509 -0.0198,0.425323 -0.39272,0.738613 -0.817,0.716238 -0.42428,-0.02239 -0.41474,-0.224015 -0.38034,-0.962735 0.0261,-0.559633 0.0772,-0.694012 0.54725,-0.694012 z m -0.0388,2.75332 c 0.4701,0 0.69401,0.515186 0.69401,0.940509 0,0.425323 -0.3581,0.738616 -0.78341,0.716235 -0.42532,-0.02238 -0.4253,-0.224012 -0.4253,-0.962731 0,-0.559634 0.0446,-0.694013 0.5147,-0.694013 z"
id="path1952" />
<path
style="fill:#d06a1f;fill-opacity:1;stroke:none;stroke-width:0.26458332px;stroke-linecap:butt;stroke-linejoin:miter;stroke-opacity:1"
d="m 227.52344,-28.777753 c 0.55964,0.04477 0.57083,0.223853 0.57083,0.481285 0,0.257432 -0.0112,0.559636 -0.42532,0.570828 -0.41413,0.01119 -0.63799,-0.111927 -0.63799,-0.526058 0,-0.414128 0.14551,-0.503671 0.49248,-0.526055 z"
id="path1954" />
<path
id="path1956"
d="m 229.85317,-32.714401 c 0.0448,-1.029726 0.0896,-1.029726 0.76111,-1.007342 0.67156,0.02238 0.78349,0.179083 0.78349,0.917802 0,0.738717 0.0224,1.723673 0.0448,2.551933 0.0224,0.828259 0.0895,1.253582 0.44771,0.671563 0.35816,-0.58202 0.35816,-0.671563 0.55963,-0.649177 0.20147,0.02238 0.26863,-0.111926 0.53725,0.447707 0.26862,0.559636 0.51486,0.559636 0.51486,0.134313 0,-0.425323 0.0224,-2.440009 0.0448,-3.223495 0.0224,-0.78349 0.0895,-0.805876 0.58202,-0.805876 0.49247,0 0.67156,0.111929 0.73871,0.626792 0.0672,0.514864 0.11193,3.559276 0.11193,4.320379 0,0.761103 -0.38055,0.783489 -0.82826,0.783489 -0.44771,0 -0.47009,-0.04477 -1.00734,-0.62679 -0.53725,-0.582019 -0.78349,-0.761103 -1.11927,-0.111927 -0.33579,0.649177 -0.64918,0.850644 -1.25358,0.850644 -0.60441,0 -0.76111,-0.06716 -0.85065,-0.425323 -0.0895,-0.358166 -0.11193,-3.245879 -0.0672,-4.454692 z"
style="fill:#d06a1f;fill-opacity:1;stroke:none;stroke-width:0.26458332px;stroke-linecap:butt;stroke-linejoin:miter;stroke-opacity:1" />
<path
id="path1958"
d="m 238.79419,-34.171421 c 1.10802,-0.03166 1.17133,0.126629 1.17133,0.411549 0,0.284919 -0.2216,0.601498 -1.0447,0.569838 -0.8231,-0.03166 -1.17134,0.03166 -1.17134,0.443209 0,0.411551 -0.095,1.171337 0.15829,1.171337 0.25326,0 0.66481,-0.03166 1.10802,0.03166 0.44321,0.06331 0.50653,0.12663 0.50653,0.411549 0,0.284922 -0.095,0.506523 -0.66482,0.538183 -0.56983,0.03166 -1.01304,0.06331 -0.98139,0.759786 0.0317,0.696468 0.0633,0.918072 0.50653,0.981387 0.44321,0.06332 0.47486,0.03166 1.01304,0.03166 0.53819,0 0.5645,0.0467 0.57569,0.348899 0.0112,0.302204 -0.0895,0.380552 -0.66037,0.402939 -0.57083,0.02238 -1.85798,0.04477 -2.35046,0.03358 -0.49248,-0.01119 -0.68276,-0.223856 -0.66037,-0.850646 0.0224,-0.62679 0.0112,-3.357808 0.0224,-4.163682 0.0112,-0.805875 0.13442,-1.078035 0.42533,-1.085691 0.80274,-0.02029 1.43571,-0.04251 2.04629,-0.03556 z"
style="fill:#d06a1f;fill-opacity:1;stroke:none;stroke-width:0.26458332px;stroke-linecap:butt;stroke-linejoin:miter;stroke-opacity:1" />
<path
id="path1960"
d="m 244.09686,-34.298053 c 0.88641,0.03166 0.9339,0.09497 0.9339,0.411551 0,0.316577 0.0633,0.379891 -0.58567,0.348234 -0.64898,-0.03166 -1.66203,0 -1.69369,0.648983 -0.0316,0.648983 -0.0633,1.187164 0.96557,1.250479 1.02887,0.06332 1.3771,1.044705 1.3771,1.757005 0,0.712298 -0.56983,1.772833 -2.12106,1.693688 -1.55123,-0.07914 -1.63038,-0.142459 -1.63038,-0.474866 0,-0.332407 0.0791,-0.395721 0.52236,-0.379891 0.44321,0.01582 1.85198,0.284919 1.89946,-0.743958 0.0475,-1.028875 -0.52235,-0.98139 -1.28214,-1.076362 -0.75978,-0.09497 -1.20299,-0.585669 -1.1555,-1.646201 0.0475,-1.060534 0.64898,-1.646203 1.17133,-1.709518 0.52236,-0.06331 0.79144,-0.126632 1.59872,-0.07914 z"
style="fill:#d06a1f;fill-opacity:1;stroke:none;stroke-width:0.26458332px;stroke-linecap:butt;stroke-linejoin:miter;stroke-opacity:1" />
<path
id="path1962"
d="m 248.00659,-34.393026 c 1.25048,0.07914 1.37711,0.09497 1.36128,0.490694 -0.0158,0.395721 -0.0633,0.364064 -0.33241,0.411551 -0.26909,0.04749 -0.49069,-0.07914 -0.50652,0.886415 -0.0158,0.96556 -0.0317,3.529836 -0.0475,3.973045 -0.0158,0.443208 -0.20577,0.459036 -0.55401,0.474866 -0.34823,0.01582 -0.68064,-0.03166 -0.68064,-0.569839 0,-0.538181 0.0633,-3.577322 0.0633,-4.052189 0,-0.474866 -0.14246,-0.69647 -0.55402,-0.69647 -0.41154,0 -0.41154,-0.14246 -0.39572,-0.474866 0.0158,-0.332404 0.12664,-0.459037 1.64621,-0.443207 z"
style="fill:#d06a1f;fill-opacity:1;stroke:none;stroke-width:0.26458332px;stroke-linecap:butt;stroke-linejoin:miter;stroke-opacity:1" />
<path
style="fill:#d06a1f;fill-opacity:1;stroke:none;stroke-width:0.26458332px;stroke-linecap:butt;stroke-linejoin:miter;stroke-opacity:1"
d="m 265.95651,-34.74126 c 1.10802,-0.03166 1.17133,0.126629 1.17133,0.411549 0,0.284919 -0.2216,0.601498 -1.0447,0.569838 -0.8231,-0.03166 -1.17134,0.03166 -1.17134,0.443209 0,0.411551 -0.095,1.171337 0.15829,1.171337 0.25326,0 0.66481,-0.03166 1.10802,0.03166 0.44321,0.06331 0.50653,0.12663 0.50653,0.411549 0,0.284922 -0.095,0.506523 -0.66482,0.538183 -0.56983,0.03166 -1.01304,0.06331 -0.98139,0.759786 0.0317,0.696468 0.0633,0.918072 0.50653,0.981387 0.44321,0.06332 0.47486,0.03166 1.01304,0.03166 0.53819,0 0.5645,0.0467 0.57569,0.348899 0.0112,0.302204 -0.0895,0.380552 -0.66037,0.402939 -0.57083,0.02238 -1.85798,0.04477 -2.35046,0.03358 -0.49248,-0.01119 -0.68276,-0.223856 -0.66037,-0.850646 0.0224,-0.62679 0.0112,-3.357808 0.0224,-4.163682 0.0112,-0.805875 0.13442,-1.078035 0.42533,-1.085691 0.80274,-0.02029 1.43571,-0.04251 2.04629,-0.03556 z"
id="path1964" />
<path
id="path1966"
d="m 259.24508,-34.61463 c 0.66481,0 0.7836,0.04224 0.80599,1.586833 0.0224,1.544593 0.0448,2.820559 0.38055,2.842945 0.33578,0.02238 0.35816,-0.33578 0.38055,-2.171382 0.0224,-1.835603 -0.17908,-2.328079 0.53725,-2.328079 0.71633,0 0.73872,0.223853 0.78349,0.783486 0.009,3.19833 -0.1474,3.568065 -0.71629,4.566621 -0.53832,0.753411 -1.16403,1.499819 -2.03707,0.02238 -0.98044,-1.659198 -0.9178,-1.544591 -0.94019,-3.40258 -0.0224,-1.857986 0.20125,-1.85293 0.80577,-1.900229 z"
style="fill:#d06a1f;fill-opacity:1;stroke:none;stroke-width:0.26458332px;stroke-linecap:butt;stroke-linejoin:miter;stroke-opacity:1" />
<path
id="path1968"
d="m 274.6911,-35.176793 c 0.85066,-0.02238 1.09688,0.06716 1.0745,0.716333 -0.0225,0.649176 -0.33578,0.87303 -0.7611,1.365509 -0.42532,0.492477 -0.64918,0.850644 -0.67157,2.260923 -0.0225,1.410279 -0.0895,1.746059 -0.69394,1.746059 -0.60439,0 -0.71634,-0.179083 -0.7611,-0.783486 -0.0448,-0.604407 0,-1.298353 0.0448,-1.947529 0.0448,-0.649177 0.1791,-0.805874 0.69395,-1.298353 0.51488,-0.49248 0.60442,-0.962573 0.1791,-0.984957 -0.42532,-0.02238 -1.67892,0 -2.149,-0.02238 -0.47009,-0.02238 -0.47009,-0.29101 -0.40293,-0.58202 0.0672,-0.29101 0.0895,-0.358167 0.53723,-0.402937 0.44773,-0.04477 1.567,-0.04477 2.9101,-0.06716 z"
style="fill:#d06a1f;fill-opacity:1;stroke:none;stroke-width:0.26458332px;stroke-linecap:butt;stroke-linejoin:miter;stroke-opacity:1" />
<path
id="path1970"
d="m 268.26752,-41.215265 c 0.74396,0.03166 0.74396,0.09497 0.7598,0.807271 0.0159,0.7123 -0.0475,2.041924 0.37989,2.041924 0.42738,0 0.44321,-1.076362 0.45903,-1.741175 0.0159,-0.664813 0,-0.96556 0.56983,-0.949733 0.56986,0.01582 0.63318,0.15829 0.66482,0.854761 0.0317,0.696468 0.12663,1.218821 -0.61733,2.295183 -0.74395,1.076362 -1.21882,1.10802 -2.04192,0.14246 -0.82309,-0.96556 -0.8864,-1.171334 -0.87058,-2.184381 0.0159,-1.013048 0.14245,-1.26631 0.69646,-1.26631 z"
style="fill:#d06a1f;fill-opacity:1;stroke:none;stroke-width:0.26458332px;stroke-linecap:butt;stroke-linejoin:miter;stroke-opacity:1" />
<path
id="path1972"
d="m 272.5888,-41.246922 c 0.74396,-0.03166 0.82309,0.03166 0.87059,1.234649 0.0475,1.202994 0.0317,1.915292 -0.0159,2.485133 -0.0475,0.569839 -0.12663,0.633154 -0.61732,0.633154 -0.4907,0 -0.8231,0.01582 -0.90226,-0.522354 -0.0791,-0.538181 -0.095,-2.532615 -0.0791,-3.086626 0.0159,-0.554012 0.11081,-0.728129 0.74396,-0.743956 z"
style="fill:#d06a1f;fill-opacity:1;stroke:none;stroke-width:0.26458332px;stroke-linecap:butt;stroke-linejoin:miter;stroke-opacity:1" />
<path
id="path1974"
d="m 272.54131,-42.13334 c 0.80727,0 0.93392,-0.09497 0.94975,-0.522351 0.0159,-0.427381 -0.14248,-0.506523 -0.87059,-0.522353 -0.72813,-0.01582 -0.88643,0.04749 -0.90225,0.459036 -0.0159,0.411551 0.14245,0.585668 0.82309,0.585668 z"
style="fill:#d06a1f;fill-opacity:1;stroke:none;stroke-width:0.26458332px;stroke-linecap:butt;stroke-linejoin:miter;stroke-opacity:1" />
<path
id="path1976"
transform="scale(0.26458333)"
d="m 1042.7012,-156.49219 c -3.4698,0.0598 -4.1875,0.41873 -4.1875,1.61524 0,1.19651 0.7775,1.67502 2.5722,1.61523 1.7947,-0.0598 2.5708,1.01761 2.6309,2.1543 0.06,1.13667 -0.8959,1.31565 -2.6309,1.25586 -1.735,-0.0598 -4.0689,0.53918 -4.0088,5.20559 0.06,4.66641 5.9223,5.08451 9.2725,4.84519 3.3502,-0.23931 3.8283,-1.49553 3.5293,-7.11914 -0.2991,-5.62361 -1.7933,-9.69193 -7.1777,-9.57227 z m 0.7773,10.16992 c 1.2563,0 1.7344,0.30021 1.7344,2.03516 0,1.73497 -0.4177,1.91458 -1.8535,1.79492 -1.4359,-0.11965 -1.6157,-0.29939 -1.6758,-2.45312 -0.06,-1.3162 0.5385,-1.37696 1.7949,-1.37696 z"
style="fill:#d06a1f;fill-opacity:1;stroke:none;stroke-width:0.99999994px;stroke-linecap:butt;stroke-linejoin:miter;stroke-opacity:1" />
</g>
<path
style="fill:#1b1b1b;fill-opacity:1;stroke:none;stroke-width:0.26458332px;stroke-linecap:butt;stroke-linejoin:miter;stroke-opacity:1"
d="m 85.919055,92.237858 c 3.672295,0.126629 3.545665,-0.189947 3.672295,1.899462 0.126632,2.089409 0.126632,10.57368 0.06331,12.34651 -0.06331,1.77283 -0.569839,1.83615 -2.849195,1.83615 -2.279356,0 -136.1282,-6.26823 -138.217609,-6.33154 -2.08941,-0.0633 -2.184382,-0.37989 -2.247696,-2.089416 -0.06332,-1.709515 -0.06332,-11.143516 -0.06332,-11.903301 0,-0.759786 0.601498,-0.56984 1.741175,-0.56984 1.139677,0 130.936334,4.74866 137.901033,4.811975 z"
id="path2020" />
<path
style="fill:#1b1b1b;fill-opacity:1;stroke:none;stroke-width:0.26458332px;stroke-linecap:butt;stroke-linejoin:miter;stroke-opacity:1"
d="m -82.288691,86.398255 c 1.656519,0 1.746062,-0.134313 1.790832,1.298353 0.04477,1.432666 0.134313,7.43195 0.08954,9.043696 -0.04477,1.611749 -0.447706,1.790832 -2.686245,1.343126 -2.238539,-0.44771 -42.397926,-6.715617 -54.127866,-8.327366 -11.72995,-1.61175 -13.38647,-1.387893 -14.64005,-1.477436 -1.25358,-0.08954 -1.29835,-0.358167 -1.34312,-2.462393 -0.0448,-2.104226 0.13431,-10.968842 0.22385,-12.446275 0.0895,-1.477436 0.62081,-1.492457 1.87494,-1.467504 5.43241,0.108087 5.4227,0.03484 5.4227,1.512274 0,1.477436 0.17908,9.312323 0.22385,10.297279 0.0448,0.984957 0.13431,1.16404 2.23854,1.20881 2.10423,0.04477 55.694848,1.522206 60.933029,1.477436 z"
id="path2022" />
<path
style="fill:#252525;fill-opacity:1;stroke:none;stroke-width:0.99999994px;stroke-linecap:butt;stroke-linejoin:miter;stroke-opacity:1"
d="m -547.74023,270.45117 c -1.94582,0.0846 -2.03058,1.18341 -2.11524,2.53711 -0.0847,1.3537 -0.16992,3.97718 -0.16992,5.75391 0,1.77673 0.25468,2.20057 2.53906,2.28515 2.28435,0.0846 240.02777,5.58328 243.15821,5.41407 3.13042,-0.16921 4.56791,-0.59241 5.16015,-2.36914 0.59224,-1.77673 1.27042,-4.48384 1.94727,-6.6836 0.67685,-2.19976 0.929,-2.87695 -4.82422,-2.87695 -8.46062,-0.33842 -243.74935,-4.14513 -245.69531,-4.06055 z m 343.5,6.76758 c -2.11515,0 -2.3679,1.01615 -2.53711,2.53906 -0.16925,1.52291 -0.16985,4.23056 0.084,6.34571 0.25382,2.11516 1.52387,2.36853 4.6543,2.45312 3.13043,0.0846 251.702842,7.61463 254.66406,7.69922 2.961218,0.0846 3.723369,-0.42383 3.892578,-2.28516 0.169247,-1.86134 0.168608,-3.29971 0.08398,-5.83789 -0.0846,-2.53819 -0.08468,-3.38352 -3.976562,-3.55273 -7.952984,-0.50764 -254.750066,-7.36133 -256.865226,-7.36133 z m 295.531246,9.47656 c -1.69214,0 -1.524077,0.9309 -1.439454,6.34571 0.08461,5.4148 0.25424,5.66736 4.992188,5.75195 4.737948,0.0846 242.22815,6.60096 244.93555,6.68555 2.7074,0.0846 3.29847,-0.84623 4.14453,-2.36914 0.84606,-1.52292 1.86088,-3.63963 2.45312,-6.43165 0.5836,-2.75122 0.25855,-3.10377 -4.65234,-3.38281 -9.98033,-0.56706 -248.74147,-6.59961 -250.433594,-6.59961 z m 359.322264,10.40625 c -3.63806,0 -2.37058,2.28408 -0.84766,6.6836 1.52289,4.39952 1.18454,5.58469 5.8379,5.7539 4.65331,0.16922 194.42594,7.02291 202.3789,7.36133 7.953,0.33843 9.73047,0.33828 9.73047,-6.0918 0,-6.43006 -1.35529,-5.92276 -10.1543,-6.59961 -9.89896,-0.33843 -203.30725,-7.10742 -206.94531,-7.10742 z"
transform="scale(0.26458333)"
id="path2024" />
<g
id="g2109"
transform="matrix(0.16482534,0.0034284,0,0.29951579,3.2722255,39.631766)">
<path
style="fill:#df3e33"
d="m 80.458931,63.314209 c 0.32924,-0.9878 23.420579,-1.30336 110.083329,-1.5044 97.07027,-0.22519 109.6667,-0.08161 109.6667,1.25 0,1.33009 -12.75491,1.5044 -110.08333,1.5044 -87.62221,0 -109.998329,-0.25505 -109.666699,-1.25 z m 26.571209,-37.5 c -6.1419,-6.42509 -7.169429,-10.15901 -4.18564,-15.21017 3.2391,-5.4833497 5.51137,-6.0398297 24.66242,-6.0398297 h 17.48938 l -1.00675,3.96627 -1.00674,3.9662597 -10.03061,0.28374 c -8.23053,0.23281 -10.2264,0.59488 -11.12161,2.01757 -0.91036,1.44675 -0.14146,2.6934 4.64368,7.529 3.15408,3.18733 5.73469,6.11961 5.73469,6.51616 0,0.39655 -4.85867,0.721 -10.79705,0.721 h -10.79705 z m 36.22713,3.5 c 0.0266,-0.1375 1.49185,-5.65 3.25618,-12.25 l 3.20788,-11.9999997 14.37621,-0.27826 c 11.55905,-0.22374 14.83326,0.0212 16.70863,1.25 2.90887,1.90596 3.40279,1.91006 3.40279,0.02826 0,-1.25877 2.15679,-1.5 13.41111,-1.5 h 13.4111 l 2.5889,3.07673 c 3.15985,3.7552597 3.15324,3.5176797 0.38023,13.6732697 l -2.25269,8.25 h -8.26932 c -4.54813,0 -8.26446,-0.1125 -8.25851,-0.25 0.006,-0.1375 0.68096,-2.45902 1.5,-5.15893 2.25831,-7.4443 1.98919,-10.42747 -1.00858,-11.17986 -3.53073,-0.88616 -5.13962,-0.003 -5.93702,3.25803 -0.38067,1.55692 -1.37051,5.19326 -2.19963,8.08076 l -1.50751,5.25 h -8.32932 -8.32933 l 1.85313,-7.20435 c 2.11908,-8.23823 1.55738,-9.79565 -3.53287,-9.79565 -3.21432,0 -3.25033,0.0554 -5.51969,8.5 l -2.28426,8.5 h -8.35787 c -4.59683,0 -8.33613,-0.1125 -8.30956,-0.25 z m 72.95421,-1 c 0.002,-1.07557 4.01545,-16.85645 5.59488,-21.9999997 0.48676,-1.58516 2.29971,-1.75 19.24748,-1.75 19.90864,0 21.43189,0.32672 25.08896,5.38127 1.37629,1.9022097 1.48019,1.8440197 2.5886,-1.44976 l 1.15475,-3.43151 22.23493,-0.26933 22.23492,-0.26933 -0.70705,2.26933 c -2.12523,6.8210697 -1.90999,6.6564997 -9.11914,6.9726697 l -6.76414,0.29666 -2.12163,7.5 -2.12164,7.5 -8.15672,0.29044 c -9.35481,0.33311 -9.03968,0.79076 -6.2273,-9.04362 l 1.92941,-6.74682 h -6.42941 -6.42942 v 3.54966 c 0,1.95231 -0.68262,4.8697 -1.51693,6.48307 -2.41073,4.66184 -6.12058,5.96727 -16.95816,5.96727 -9.35737,0 -9.59652,-0.0582 -10.54966,-2.5651 -0.53639,-1.4108 -0.97525,-2.7608 -0.97525,-3 0,-0.23919 2.385,-0.4349 5.3,-0.4349 5.96504,0 7.7,-1.15889 7.7,-5.1433 0,-3.84179 -3.31255,-5.8567 -9.62851,-5.8567 h -5.18349 l -2.24546,8.5 -2.24547,8.5 h -7.84853 c -5.61351,0 -7.84782,-0.35596 -7.84602,-1.25 z"
id="path4826-7" />
<path
style="fill:#16130f"
d="m 85.007241,49.064209 1.53084,-5.5 h 13.33544 c 12.002109,0 13.535409,-0.19997 15.335439,-2 2.28336,-2.28336 2.37655,-2.8794 1.0115,-6.46976 l -0.9885,-2.59995 10.2385,0.28485 10.2385,0.28486 v 6.66997 c 0,5.72558 -0.35397,7.05351 -2.5,9.37887 -4.57579,4.95817 -7.2287,5.45116 -29.33417,5.45116 H 83.476391 Z m 52.281699,2.25 c 0.5172,-1.7875 1.88508,-6.7375 3.03974,-11 l 2.09938,-7.75 h 7.89045 c 4.33975,0 7.89823,0.3375 7.90773,0.75 0.01,0.4125 -1.21473,5.3625 -2.72053,11 l -2.73782,10.25 h -8.20966 -8.20966 z m 25.92002,2.10816 c 0,-0.62802 1.23116,-5.57802 2.73591,-11 l 2.73591,-9.85816 h 8.1935 8.19351 l -1.95435,6.75 c -1.07489,3.7125 -2.44655,8.6625 -3.04813,11 l -1.09378,4.25 h -7.88128 c -5.24021,0 -7.88129,-0.38264 -7.88129,-1.14184 z m 27.09552,-5.60816 c 1.07489,-3.7125 2.44655,-8.6625 3.04813,-11 l 1.09378,-4.25 h 7.94867 c 7.08942,0 7.89592,0.18918 7.46063,1.75 -0.26842,0.9625 -0.71964,2.65 -1.00272,3.75 -0.28307,1.1 -1.46283,5.2625 -2.62169,9.25 l -2.10701,7.25 h -7.88707 -7.88707 z m 19.10452,5.04437 c 0.25108,-0.9869 1.53678,-5.95687 2.8571,-11.04437 l 2.4006,-9.25 h 7.77113 c 4.27412,0 7.75274,0.3375 7.73027,0.75 -0.0225,0.4125 -1.26719,5.25 -2.76603,10.75 l -2.72517,10 -7.8622,0.29437 c -7.14237,0.26742 -7.82041,0.13009 -7.4057,-1.5 z m 37.39736,-0.04437 c -0.29555,-0.9625 -1.64342,-5.9125 -2.99526,-11 l -2.45788,-9.25 h 6.20536 c 3.95885,0 6.99833,0.55541 8.39571,1.53417 1.96428,1.37584 4.36032,7.6128 6.80583,17.71583 l 0.66566,2.75 h -8.04102 c -6.78674,0 -8.12485,-0.27298 -8.5784,-1.75 z m 23.93874,-1.41456 c 0.38228,-1.7405 1.67174,-6.578 2.86545,-10.75 l 2.1704,-7.58544 8.15471,-0.28948 8.15472,-0.28949 -1.96565,6.78949 c -1.0811,3.73421 -2.45784,8.70198 -3.05942,11.03948 l -1.09378,4.25 h -7.96074 -7.96074 z"
id="path4822-9" />
<path
id="path1820-3"
d="M 33.254631,62.714904 C 26.799418,61.315173 22.107174,58.715544 17.221648,53.832197 12.968063,49.580519 9.742983,44.205296 8.891655,39.948661 l -0.379667,-1.898336 7.535536,-0.434181 c 4.14454,-0.2388 10.532671,-0.435543 14.195843,-0.437203 l 6.66032,-0.0033 3.479935,-4.65018 3.479935,-4.650179 h 17.948426 17.948418 l -2.74836,3.64018 -2.74836,3.640181 -13.349602,0.17961 -13.349603,0.17961 -2.197635,2.989401 c -1.208701,1.644171 -2.908076,3.811486 -3.776384,4.816257 l -1.578749,1.826857 h -9.84734 -9.847348 l 2.96164,3.018963 c 1.628905,1.660427 4.605811,3.815446 6.615352,4.788928 3.107237,1.505237 4.547943,1.774056 9.632516,1.797294 5.303157,0.02424 6.429232,-0.193653 9.964671,-1.928177 5.08428,-2.494402 9.712099,-7.237041 11.66908,-11.958601 l 1.529478,-3.689845 h 4.208444 4.20842 l -0.39739,1.826856 c -0.21858,1.004772 -1.42056,3.962213 -2.67109,6.572093 -4.251706,8.873399 -12.310381,15.014028 -22.532811,17.169785 -5.571473,1.174941 -6.707732,1.172177 -12.250699,-0.02976 z M 0,35.269763 c 0,-0.317647 1.221191,-2.111288 2.713759,-3.985868 l 2.713752,-3.408336 h 13.176423 13.176418 l 3.382255,-4.65018 c 1.860238,-2.557599 3.453654,-4.696469 3.540932,-4.753041 0.08727,-0.0566 4.64278,-0.280785 10.123348,-0.498234 l 9.964671,-0.395372 -2.657245,-2.603556 C 54.672827,13.543227 51.533956,11.458026 49.159043,10.341405 43.59691,7.7262303 37.000164,7.5685703 30.980295,9.9069193 25.811587,11.914654 19.833262,17.793444 18.155006,22.518704 l -1.194765,3.36392 H 12.715106 8.46997 L 8.889908,23.723613 C 10.235663,16.80469 17.427864,7.5220943 24.314329,3.8161343 c 9.16296,-4.9310637 20.450122,-5.0930896 29.905963,-0.429285 5.261545,2.595086 11.220839,8.6762977 13.821549,14.1043337 1.2485,2.605748 2.44881,5.559815 2.66739,6.564585 l 0.39739,1.826856 H 56.874162 42.64169 l -3.398684,4.584573 C 37.373734,32.98871 35.377877,35.230762 34.807771,35.449532 33.160504,36.081645 0,35.910385 0,35.269763 Z"
style="fill:#df3e33;stroke-width:0.66431135" />
</g>
<path
style="fill:#6c6c6c;fill-opacity:1;stroke:none;stroke-width:0.25112876px;stroke-linecap:butt;stroke-linejoin:miter;stroke-opacity:1"
d="m -66.565842,76.502711 c 5.799809,0.196604 8.060751,8.748862 8.257355,15.335083 0.196604,6.586224 -2.359244,14.450376 -7.372638,14.745276 -5.013392,0.29491 -7.765844,-7.176032 -8.06075,-15.040181 -0.294905,-7.864145 2.555848,-14.843574 7.176033,-15.040178 z"
id="path2123" />
<path
style="fill:#6c6c6c;fill-opacity:1;stroke:none;stroke-width:0.26458332px;stroke-linecap:butt;stroke-linejoin:miter;stroke-opacity:1"
d="m 108.85047,111.92313 c 6.73195,-0.10357 7.8712,-12.531786 7.76763,-17.503074 -0.10357,-4.971285 -3.21062,-16.15668 -8.18191,-16.260249 -4.97128,-0.103568 -7.76763,6.317676 -8.07834,16.156681 -0.3107,9.839002 3.31419,17.192372 8.49262,17.606642 z"
id="path2137" />
</g>
</g>
</svg>
